<svg xmlns="http://www.w3.org/2000/svg" viewBox="0 0 500 500"><g id="freepik--background-simple--inject-496"><path d="M477,205.3c-14.64-55.24-55.45-100.41-104.7-125.13-47-23.59-106.93-36.45-153.25-4-30.49,21.34-48.52,56.54-76.59,80.68-13.95,12-28.92,15.55-45.27,22.46C57.36,196.12,23.34,230,19.12,276.07c-7,77,51.25,132.33,117.69,152,87.79,26,154,28.21,215.62,5.23,32-11.94,64.7-27.3,88.35-53.41C476.56,340.42,488,283,481.85,230.59A181,181,0,0,0,477,205.3Z" style="fill:#CC2952"></path><path d="M477,205.3c-14.64-55.24-55.45-100.41-104.7-125.13-47-23.59-106.93-36.45-153.25-4-30.49,21.34-48.52,56.54-76.59,80.68-13.95,12-28.92,15.55-45.27,22.46C57.36,196.12,23.34,230,19.12,276.07c-7,77,51.25,132.33,117.69,152,87.79,26,154,28.21,215.62,5.23,32-11.94,64.7-27.3,88.35-53.41C476.56,340.42,488,283,481.85,230.59A181,181,0,0,0,477,205.3Z" style="fill:#fff;opacity:0.8"></path></g><g id="freepik--Clouds--inject-496"><path d="M256.27,138.26c-10.5-5.73-15.28-1-19.1-5.73s10.51-17.2-18.15-29.61c0,0-1.91-26.75-41.07-27.7S149.3,102,138.79,108.65s-13.37-3.82-23.88,2.86-5.73,20.06-14.32,22S80.53,124.89,70,131.57,59.52,144,54.74,144s-14.33-3.82-20.06,0-12.41,8.59-12.41,8.59H263.91S266.78,144,256.27,138.26Z" style="fill:#CC2952"></path><g style="opacity:0.5"><path d="M256.27,138.26c-10.5-5.73-15.28-1-19.1-5.73s10.51-17.2-18.15-29.61c0,0-1.91-26.75-41.07-27.7S149.3,102,138.79,108.65s-13.37-3.82-23.88,2.86-5.73,20.06-14.32,22S80.53,124.89,70,131.57,59.52,144,54.74,144s-14.33-3.82-20.06,0-12.41,8.59-12.41,8.59H263.91S266.78,144,256.27,138.26Z" style="fill:#fff"></path></g><path d="M425.41,70.21c-5.63-3.07-8.19-.51-10.24-3.07s5.63-9.22-9.73-15.87c0,0-1-14.33-22-14.85s-15.36,14.34-21,17.92-7.16-2.05-12.79,1.54S346.57,66.63,342,67.65s-10.75-4.61-16.38-1-5.64,6.65-8.19,6.65-7.68-2-10.75,0S300,77.89,300,77.89H429.5S431,73.28,425.41,70.21Z" style="fill:#CC2952"></path><g style="opacity:0.5"><path d="M425.41,70.21c-5.63-3.07-8.19-.51-10.24-3.07s5.63-9.22-9.73-15.87c0,0-1-14.33-22-14.85s-15.36,14.34-21,17.92-7.16-2.05-12.79,1.54S346.57,66.63,342,67.65s-10.75-4.61-16.38-1-5.64,6.65-8.19,6.65-7.68-2-10.75,0S300,77.89,300,77.89H429.5S431,73.28,425.41,70.21Z" style="fill:#fff"></path></g><path d="M418.78,147.37c-2.44-1.33-3.55-.22-4.44-1.33s2.45-4-4.22-6.89c0,0-.44-6.21-9.55-6.44s-6.66,6.22-9.11,7.78-3.11-.89-5.55.66-1.33,4.67-3.33,5.11-4.67-2-7.11-.44-2.44,2.89-3.55,2.89-3.34-.89-4.67,0-2.89,2-2.89,2h56.2S421.23,148.71,418.78,147.37Z" style="fill:#CC2952"></path><g style="opacity:0.5"><path d="M418.78,147.37c-2.44-1.33-3.55-.22-4.44-1.33s2.45-4-4.22-6.89c0,0-.44-6.21-9.55-6.44s-6.66,6.22-9.11,7.78-3.11-.89-5.55.66-1.33,4.67-3.33,5.11-4.67-2-7.11-.44-2.44,2.89-3.55,2.89-3.34-.89-4.67,0-2.89,2-2.89,2h56.2S421.23,148.71,418.78,147.37Z" style="fill:#fff"></path></g></g><g id="freepik--hazardous-waste--inject-496"><circle cx="247.17" cy="367.02" r="24.28" style="fill:#fff;stroke:#263238;stroke-linecap:round;stroke-linejoin:round"></circle><circle cx="247.17" cy="367.02" r="20.76" style="fill:#263238;stroke:#263238;stroke-linecap:round;stroke-linejoin:round"></circle><path d="M468.72,455.33V419.44H281.64a15.83,15.83,0,0,1-15.83-15.83V376.22H229.22v27.39a15.83,15.83,0,0,1-15.83,15.83H36.24v35.89" style="fill:#CC2952;stroke:#263238;stroke-linecap:round;stroke-linejoin:round"></path><line x1="76.66" y1="431.91" x2="116.59" y2="431.91" style="fill:none;stroke:#263238;stroke-linecap:round;stroke-linejoin:round"></line><line x1="122.37" y1="431.91" x2="129.72" y2="431.91" style="fill:none;stroke:#263238;stroke-linecap:round;stroke-linejoin:round"></line><line x1="288.91" y1="431.91" x2="328.83" y2="431.91" style="fill:none;stroke:#263238;stroke-linecap:round;stroke-linejoin:round"></line><line x1="334.61" y1="431.91" x2="341.97" y2="431.91" style="fill:none;stroke:#263238;stroke-linecap:round;stroke-linejoin:round"></line><line x1="123.95" y1="439.26" x2="163.87" y2="439.26" style="fill:none;stroke:#263238;stroke-linecap:round;stroke-linejoin:round"></line><line x1="169.65" y1="439.26" x2="177.01" y2="439.26" style="fill:none;stroke:#263238;stroke-linecap:round;stroke-linejoin:round"></line><line x1="209.58" y1="439.26" x2="249.5" y2="439.26" style="fill:none;stroke:#263238;stroke-linecap:round;stroke-linejoin:round"></line><line x1="255.28" y1="439.26" x2="262.64" y2="439.26" style="fill:none;stroke:#263238;stroke-linecap:round;stroke-linejoin:round"></line><line x1="388.2" y1="439.26" x2="428.12" y2="439.26" style="fill:none;stroke:#263238;stroke-linecap:round;stroke-linejoin:round"></line><line x1="433.9" y1="439.26" x2="441.26" y2="439.26" style="fill:none;stroke:#263238;stroke-linecap:round;stroke-linejoin:round"></line><line x1="96.63" y1="446.62" x2="73.7" y2="446.62" style="fill:none;stroke:#263238;stroke-linecap:round;stroke-linejoin:round"></line><line x1="70.38" y1="446.62" x2="66.16" y2="446.62" style="fill:none;stroke:#263238;stroke-linecap:round;stroke-linejoin:round"></line><line x1="200.65" y1="446.62" x2="177.72" y2="446.62" style="fill:none;stroke:#263238;stroke-linecap:round;stroke-linejoin:round"></line><line x1="174.4" y1="446.62" x2="170.18" y2="446.62" style="fill:none;stroke:#263238;stroke-linecap:round;stroke-linejoin:round"></line><line x1="291.53" y1="446.62" x2="240.54" y2="446.62" style="fill:none;stroke:#263238;stroke-linecap:round;stroke-linejoin:round"></line><line x1="233.16" y1="446.62" x2="223.76" y2="446.62" style="fill:none;stroke:#263238;stroke-linecap:round;stroke-linejoin:round"></line><line x1="398.18" y1="446.62" x2="347.18" y2="446.62" style="fill:none;stroke:#263238;stroke-linecap:round;stroke-linejoin:round"></line><line x1="339.8" y1="446.62" x2="330.41" y2="446.62" style="fill:none;stroke:#263238;stroke-linecap:round;stroke-linejoin:round"></line><line x1="235.85" y1="376.75" x2="235.85" y2="391.98" style="fill:none;stroke:#263238;stroke-linecap:round;stroke-linejoin:round"></line><line x1="243.73" y1="411.95" x2="243.73" y2="416.67" style="fill:none;stroke:#263238;stroke-linecap:round;stroke-linejoin:round"></line><line x1="243.73" y1="391.46" x2="243.73" y2="408.27" style="fill:none;stroke:#263238;stroke-linecap:round;stroke-linejoin:round"></line><line x1="253.18" y1="382" x2="253.18" y2="391.46" style="fill:none;stroke:#263238;stroke-linecap:round;stroke-linejoin:round"></line><line x1="260.54" y1="388.83" x2="260.54" y2="408.27" style="fill:none;stroke:#263238;stroke-linecap:round;stroke-linejoin:round"></line><path d="M54.77,369.67c0,4.09-4,4.09-4,8.17s4,4.09,4,8.17-4,4.08-4,8.17,4,4.08,4,8.17-4,4.09-4,8.17" style="fill:none;stroke:#263238;stroke-linecap:round;stroke-linejoin:round"></path><path d="M76.17,386c0,4.08-4,4.08-4,8.17s4,4.08,4,8.17-4,4.09-4,8.17" style="fill:none;stroke:#263238;stroke-linecap:round;stroke-linejoin:round"></path><path d="M94.1,369.67c0,4.09,4,4.09,4,8.17s-4,4.09-4,8.17,4,4.08,4,8.17-4,4.08-4,8.17,4,4.09,4,8.17" style="fill:none;stroke:#263238;stroke-linecap:round;stroke-linejoin:round"></path><path d="M119.5,386c0,4.08-4,4.08-4,8.17s4,4.08,4,8.17-4,4.09-4,8.17" style="fill:none;stroke:#263238;stroke-linecap:round;stroke-linejoin:round"></path><path d="M141.44,369.67c0,4.09-4,4.09-4,8.17s4,4.09,4,8.17-4,4.08-4,8.17,4,4.08,4,8.17-4,4.09-4,8.17" style="fill:none;stroke:#263238;stroke-linecap:round;stroke-linejoin:round"></path><path d="M158.84,386c0,4.08,4,4.08,4,8.17s-4,4.08-4,8.17,4,4.09,4,8.17" style="fill:none;stroke:#263238;stroke-linecap:round;stroke-linejoin:round"></path><path d="M184.77,369.67c0,4.09-4,4.09-4,8.17s4,4.09,4,8.17-4,4.08-4,8.17,4,4.08,4,8.17-4,4.09-4,8.17" style="fill:none;stroke:#263238;stroke-linecap:round;stroke-linejoin:round"></path><path d="M206.17,386c0,4.08-4,4.08-4,8.17s4,4.08,4,8.17-4,4.09-4,8.17" style="fill:none;stroke:#263238;stroke-linecap:round;stroke-linejoin:round"></path><path d="M294.51,369.67c0,4.09-4,4.09-4,8.17s4,4.09,4,8.17-4,4.08-4,8.17,4,4.08,4,8.17-4,4.09-4,8.17" style="fill:none;stroke:#263238;stroke-linecap:round;stroke-linejoin:round"></path><path d="M315.91,386c0,4.08-4,4.08-4,8.17s4,4.08,4,8.17-4,4.09-4,8.17" style="fill:none;stroke:#263238;stroke-linecap:round;stroke-linejoin:round"></path><path d="M333.84,369.67c0,4.09,4,4.09,4,8.17s-4,4.09-4,8.17,4,4.08,4,8.17-4,4.08-4,8.17,4,4.09,4,8.17" style="fill:none;stroke:#263238;stroke-linecap:round;stroke-linejoin:round"></path><path d="M359.24,386c0,4.08-4,4.08-4,8.17s4,4.08,4,8.17-4,4.09-4,8.17" style="fill:none;stroke:#263238;stroke-linecap:round;stroke-linejoin:round"></path><path d="M381.18,369.67c0,4.09-4,4.09-4,8.17s4,4.09,4,8.17-4,4.08-4,8.17,4,4.08,4,8.17-4,4.09-4,8.17" style="fill:none;stroke:#263238;stroke-linecap:round;stroke-linejoin:round"></path><path d="M398.58,386c0,4.08,4,4.08,4,8.17s-4,4.08-4,8.17,4,4.09,4,8.17" style="fill:none;stroke:#263238;stroke-linecap:round;stroke-linejoin:round"></path><path d="M424.51,369.67c0,4.09-4,4.09-4,8.17s4,4.09,4,8.17-4,4.08-4,8.17,4,4.08,4,8.17-4,4.09-4,8.17" style="fill:none;stroke:#263238;stroke-linecap:round;stroke-linejoin:round"></path><path d="M445.91,386c0,4.08-4,4.08-4,8.17s4,4.08,4,8.17-4,4.09-4,8.17" style="fill:none;stroke:#263238;stroke-linecap:round;stroke-linejoin:round"></path></g><g id="freepik--Factory--inject-496"><circle cx="145.95" cy="155.43" r="24.38" style="fill:#CC2952"></circle><circle cx="116.64" cy="138.89" r="11.32" transform="translate(-44.03 54.75) rotate(-22.34)" style="fill:#CC2952"></circle><circle cx="153.49" cy="114.8" r="14.51" transform="translate(-36.22 142.16) rotate(-45)" style="fill:#CC2952"></circle><circle cx="134.33" cy="111.88" r="11.03" transform="translate(-5.31 217.06) rotate(-76.78)" style="fill:#CC2952"></circle><circle cx="121.35" cy="116.75" r="11.03" style="fill:#CC2952"></circle><circle cx="154.06" cy="98.09" r="11.03" style="fill:#CC2952"></circle><circle cx="175.55" cy="133.95" r="9.29" style="fill:#CC2952"></circle><circle cx="192.09" cy="101.74" r="13.64" style="fill:#CC2952"></circle><path d="M223.14,73.3a6.1,6.1,0,1,1-6.09-6.09A6.09,6.09,0,0,1,223.14,73.3Z" style="fill:#CC2952"></path><path d="M205.15,72.72a4.94,4.94,0,1,1-4.93-4.93A4.93,4.93,0,0,1,205.15,72.72Z" style="fill:#CC2952"></path><path d="M238.23,54.44a4.64,4.64,0,1,1-4.64-4.65A4.64,4.64,0,0,1,238.23,54.44Z" style="fill:#CC2952"></path><circle cx="210.08" cy="88.39" r="9" style="fill:#CC2952"></circle><circle cx="172.65" cy="107.54" r="10.8" style="fill:#CC2952"></circle><circle cx="186.98" cy="129.98" r="7.26" style="fill:#CC2952"></circle><circle cx="186.71" cy="114.3" r="7.26" style="fill:#CC2952"></circle><circle cx="205.36" cy="122.68" r="7.26" style="fill:#CC2952"></circle><circle cx="166.7" cy="92.13" r="7.26" style="fill:#CC2952"></circle><circle cx="135.21" cy="131.34" r="14.8" transform="translate(-16.01 243.88) rotate(-80.83)" style="fill:#CC2952"></circle><circle cx="177" cy="122.05" r="9.58" transform="translate(28.09 277.14) rotate(-80.75)" style="fill:#CC2952"></circle><circle cx="169.16" cy="136.28" r="14.51" style="fill:#CC2952"></circle><circle cx="151.46" cy="140.63" r="17.7" style="fill:#CC2952"></circle><circle cx="175.83" cy="157.46" r="10.73" style="fill:#CC2952"></circle><circle cx="120.99" cy="158.91" r="11.03" style="fill:#CC2952"></circle><circle cx="168" cy="118.28" r="8.13" transform="translate(14.17 254.49) rotate(-76.67)" style="fill:#CC2952"></circle><circle cx="180.48" cy="148.17" r="14.22" style="fill:#CC2952"></circle><path d="M187.88,225.47c-5.24-34.67-1.31-60.67-1.31-60.67H105.46s4,26-1.34,60.67S78.79,314.8,78.79,314.8h134S193.12,260.14,187.88,225.47Z" style="fill:#fff;stroke:#263238;stroke-linecap:round;stroke-linejoin:round"></path><path d="M156.49,235c-5.79,4.14-16.41,4.15-22.35,0,2.55-4.42,5.1-8.87,7.72-13.42a7.05,7.05,0,0,0,6.88-.07C151.38,226.15,153.94,230.6,156.49,235Z" style="fill:#263238"></path><path d="M152.09,215.79c-.5-3-.8-3.53-3.48-6.07,1.28-2.18,2.59-4.38,3.88-6.6s2.56-4.45,3.82-6.65c6.3,2.52,12.14,12.7,11.14,19.32Z" style="fill:#263238"></path><path d="M134.25,196.49c2.58,4.4,5.18,8.82,7.83,13.32a7.41,7.41,0,0,0-3.44,5.38,1.08,1.08,0,0,1-.8.66c-4.89,0-9.77,0-14.62,0C122.14,209.29,127.9,199.19,134.25,196.49Z" style="fill:#263238"></path><path d="M145.4,220.26a4.47,4.47,0,0,1-4.6-4.41,4.53,4.53,0,1,1,9.06-.16A4.53,4.53,0,0,1,145.4,220.26Z" style="fill:#263238"></path><line x1="88.68" y1="290.51" x2="117.59" y2="290.51" style="fill:none;stroke:#263238;stroke-linecap:round;stroke-linejoin:round"></line><line x1="150.76" y1="279.45" x2="139.28" y2="279.45" style="fill:none;stroke:#263238;stroke-linecap:round;stroke-linejoin:round"></line><line x1="105.69" y1="267.97" x2="138.85" y2="267.97" style="fill:none;stroke:#263238;stroke-linecap:round;stroke-linejoin:round"></line><line x1="182.22" y1="238.64" x2="168.61" y2="238.64" style="fill:none;stroke:#263238;stroke-linecap:round;stroke-linejoin:round"></line><line x1="180.52" y1="185.91" x2="170.32" y2="185.91" style="fill:none;stroke:#263238;stroke-linecap:round;stroke-linejoin:round"></line><line x1="109.94" y1="196.97" x2="123.12" y2="196.97" style="fill:none;stroke:#263238;stroke-linecap:round;stroke-linejoin:round"></line><line x1="164.79" y1="239.06" x2="161.39" y2="239.06" style="fill:none;stroke:#263238;stroke-linecap:round;stroke-linejoin:round"></line><line x1="143.1" y1="267.97" x2="146.93" y2="267.97" style="fill:none;stroke:#263238;stroke-linecap:round;stroke-linejoin:round"></line><line x1="107.39" y1="243.74" x2="121.84" y2="243.74" style="fill:none;stroke:#263238;stroke-linecap:round;stroke-linejoin:round"></line><polyline points="125.67 244.16 125.67 244.16 131.2 244.16" style="fill:none;stroke:#263238;stroke-linecap:round;stroke-linejoin:round"></polyline><line x1="163.09" y1="300.29" x2="143.53" y2="300.29" style="fill:none;stroke:#263238;stroke-linecap:round;stroke-linejoin:round"></line><line x1="144.38" y1="178.68" x2="119.72" y2="178.68" style="fill:none;stroke:#263238;stroke-linecap:round;stroke-linejoin:round"></line><path d="M296.62,169.07a2.09,2.09,0,1,1-2.09-2.08A2.09,2.09,0,0,1,296.62,169.07Z" style="fill:#CC2952"></path><circle cx="286.41" cy="179.81" r="2.9" style="fill:#CC2952"></circle><circle cx="290.18" cy="169.07" r="4.35" style="fill:#CC2952"></circle><path d="M292.85,179a2.09,2.09,0,1,1-2.08-2.09A2.08,2.08,0,0,1,292.85,179Z" style="fill:#CC2952"></path><path d="M286.71,174.29a1.54,1.54,0,1,1-1.54-1.53A1.54,1.54,0,0,1,286.71,174.29Z" style="fill:#CC2952"></path><path d="M295.7,163.77a2.85,2.85,0,1,1-2.85-2.85A2.86,2.86,0,0,1,295.7,163.77Z" style="fill:#CC2952"></path><path d="M298.33,153.79a1.43,1.43,0,1,1-1.42-1.43A1.43,1.43,0,0,1,298.33,153.79Z" style="fill:#CC2952"></path><path d="M291.31,157.3a2.08,2.08,0,1,1-2.08-2.08A2.08,2.08,0,0,1,291.31,157.3Z" style="fill:#CC2952"></path><path d="M295.48,173.64a3.51,3.51,0,1,1-3.51-3.51A3.51,3.51,0,0,1,295.48,173.64Z" style="fill:#CC2952"></path><path d="M290.77,176.43a2.8,2.8,0,1,1-2.8-2.79A2.8,2.8,0,0,1,290.77,176.43Z" style="fill:#CC2952"></path><path d="M310.58,166.21a2.9,2.9,0,1,1-2.9-2.9A2.9,2.9,0,0,1,310.58,166.21Z" style="fill:#CC2952"></path><path d="M315.8,155.47a4.35,4.35,0,1,1-4.35-4.35A4.35,4.35,0,0,1,315.8,155.47Z" style="fill:#CC2952"></path><path d="M314.12,165.41a2.09,2.09,0,1,1-2.08-2.08A2.09,2.09,0,0,1,314.12,165.41Z" style="fill:#CC2952"></path><path d="M308,160.7a1.54,1.54,0,1,1-1.53-1.54A1.53,1.53,0,0,1,308,160.7Z" style="fill:#CC2952"></path><path d="M317,150.17a2.85,2.85,0,1,1-2.85-2.85A2.85,2.85,0,0,1,317,150.17Z" style="fill:#CC2952"></path><circle cx="318.66" cy="157.3" r="1.43" style="fill:#CC2952"></circle><path d="M317.65,139.19a1.43,1.43,0,1,1-1.42-1.43A1.42,1.42,0,0,1,317.65,139.19Z" style="fill:#CC2952"></path><path d="M315.76,142.7a1.43,1.43,0,1,1-1.43-1.42A1.43,1.43,0,0,1,315.76,142.7Z" style="fill:#CC2952"></path><path d="M312.59,143.7a2.09,2.09,0,1,1-2.09-2.08A2.1,2.1,0,0,1,312.59,143.7Z" style="fill:#CC2952"></path><path d="M316.75,160a3.51,3.51,0,1,1-3.51-3.51A3.51,3.51,0,0,1,316.75,160Z" style="fill:#CC2952"></path><path d="M312,162.84a2.8,2.8,0,1,1-2.8-2.8A2.79,2.79,0,0,1,312,162.84Z" style="fill:#CC2952"></path><path d="M332.51,153.27a2.9,2.9,0,1,1-2.9-2.9A2.9,2.9,0,0,1,332.51,153.27Z" style="fill:#CC2952"></path><path d="M337.73,142.53a4.35,4.35,0,1,1-4.35-4.35A4.36,4.36,0,0,1,337.73,142.53Z" style="fill:#CC2952"></path><path d="M336.05,152.47a2.09,2.09,0,1,1-2.08-2.08A2.09,2.09,0,0,1,336.05,152.47Z" style="fill:#CC2952"></path><path d="M329.91,147.76a1.54,1.54,0,1,1-1.54-1.54A1.53,1.53,0,0,1,329.91,147.76Z" style="fill:#CC2952"></path><path d="M338.9,137.23a2.85,2.85,0,1,1-2.85-2.85A2.85,2.85,0,0,1,338.9,137.23Z" style="fill:#CC2952"></path><path d="M341.53,127.26a1.43,1.43,0,1,1-1.42-1.43A1.43,1.43,0,0,1,341.53,127.26Z" style="fill:#CC2952"></path><path d="M340.82,150.89a2.08,2.08,0,1,1-2.08-2.09A2.08,2.08,0,0,1,340.82,150.89Z" style="fill:#CC2952"></path><path d="M338.68,147.1a3.51,3.51,0,1,1-3.51-3.51A3.51,3.51,0,0,1,338.68,147.1Z" style="fill:#CC2952"></path><circle cx="331.17" cy="149.9" r="2.8" style="fill:#CC2952"></circle><path d="M345.93,134.87a2.72,2.72,0,1,1-2.72-2.72A2.72,2.72,0,0,1,345.93,134.87Z" style="fill:#CC2952"></path><circle cx="343.04" cy="146.23" r="1.53" style="fill:#CC2952"></circle><path d="M349.32,123.67a2,2,0,1,1-2-2A2,2,0,0,1,349.32,123.67Z" style="fill:#CC2952"></path><path d="M358.47,116.89a1.7,1.7,0,1,1-1.69-1.7A1.69,1.69,0,0,1,358.47,116.89Z" style="fill:#CC2952"></path><path d="M351.35,128.93a1.19,1.19,0,1,1-1.18-1.19A1.18,1.18,0,0,1,351.35,128.93Z" style="fill:#CC2952"></path><polygon points="325.45 156.14 334.56 156.14 337.59 261.91 322.41 261.91 325.45 156.14" style="fill:#263238;stroke:#263238;stroke-linecap:round;stroke-linejoin:round"></polygon><polygon points="304.39 169.85 313.5 169.85 316.53 275.63 301.35 275.63 304.39 169.85" style="fill:#263238;stroke:#263238;stroke-linecap:round;stroke-linejoin:round"></polygon><polygon points="283.33 183.56 292.44 183.56 295.48 289.34 280.3 289.34 283.33 183.56" style="fill:#263238;stroke:#263238;stroke-linecap:round;stroke-linejoin:round"></polygon><rect x="227.05" y="223.7" width="117.84" height="91.09" style="fill:#fff;stroke:#263238;stroke-linecap:round;stroke-linejoin:round"></rect><rect x="227.05" y="223.7" width="117.84" height="11.92" style="fill:#263238;stroke:#263238;stroke-linecap:round;stroke-linejoin:round"></rect><rect x="223.06" y="223.7" width="125.8" height="9.07" style="fill:#fff;stroke:#263238;stroke-linecap:round;stroke-linejoin:round"></rect><rect x="164.96" y="256.91" width="76.83" height="57.89" style="fill:#fff;stroke:#263238;stroke-linecap:round;stroke-linejoin:round"></rect><rect x="162.82" y="255.12" width="81.11" height="7.5" style="fill:#fff;stroke:#263238;stroke-linecap:round;stroke-linejoin:round"></rect><rect x="167.82" y="265.27" width="9.65" height="9.65" style="fill:#263238;stroke:#263238;stroke-linecap:round;stroke-linejoin:round"></rect><rect x="183.19" y="265.27" width="9.65" height="9.65" style="fill:#263238;stroke:#263238;stroke-linecap:round;stroke-linejoin:round"></rect><rect x="198.55" y="265.27" width="9.65" height="9.65" style="fill:#263238;stroke:#263238;stroke-linecap:round;stroke-linejoin:round"></rect><rect x="213.92" y="265.27" width="9.65" height="9.65" style="fill:#263238;stroke:#263238;stroke-linecap:round;stroke-linejoin:round"></rect><rect x="229.28" y="265.27" width="9.65" height="9.65" style="fill:#263238;stroke:#263238;stroke-linecap:round;stroke-linejoin:round"></rect><rect x="167.82" y="279.56" width="9.65" height="9.65" style="fill:#263238;stroke:#263238;stroke-linecap:round;stroke-linejoin:round"></rect><rect x="183.19" y="279.56" width="9.65" height="9.65" style="fill:#263238;stroke:#263238;stroke-linecap:round;stroke-linejoin:round"></rect><rect x="198.55" y="279.56" width="9.65" height="9.65" style="fill:#263238;stroke:#263238;stroke-linecap:round;stroke-linejoin:round"></rect><rect x="213.92" y="279.56" width="9.65" height="9.65" style="fill:#263238;stroke:#263238;stroke-linecap:round;stroke-linejoin:round"></rect><rect x="167.82" y="293.14" width="9.65" height="9.65" style="fill:#263238;stroke:#263238;stroke-linecap:round;stroke-linejoin:round"></rect><rect x="183.19" y="293.14" width="9.65" height="9.65" style="fill:#263238;stroke:#263238;stroke-linecap:round;stroke-linejoin:round"></rect><rect x="198.55" y="293.14" width="9.65" height="9.65" style="fill:#263238;stroke:#263238;stroke-linecap:round;stroke-linejoin:round"></rect><rect x="213.92" y="293.14" width="9.65" height="9.65" style="fill:#263238;stroke:#263238;stroke-linecap:round;stroke-linejoin:round"></rect><rect x="329.33" y="256.91" width="76.83" height="57.89" style="fill:#fff;stroke:#263238;stroke-linecap:round;stroke-linejoin:round"></rect><rect x="327.19" y="255.12" width="81.11" height="7.5" style="fill:#fff;stroke:#263238;stroke-linecap:round;stroke-linejoin:round"></rect><rect x="332.19" y="265.27" width="9.65" height="9.65" style="fill:#263238;stroke:#263238;stroke-linecap:round;stroke-linejoin:round"></rect><rect x="347.56" y="265.27" width="9.65" height="9.65" style="fill:#263238;stroke:#263238;stroke-linecap:round;stroke-linejoin:round"></rect><rect x="362.92" y="265.27" width="9.65" height="9.65" style="fill:#263238;stroke:#263238;stroke-linecap:round;stroke-linejoin:round"></rect><rect x="378.29" y="265.27" width="9.65" height="9.65" style="fill:#263238;stroke:#263238;stroke-linecap:round;stroke-linejoin:round"></rect><rect x="393.65" y="265.27" width="9.65" height="9.65" style="fill:#263238;stroke:#263238;stroke-linecap:round;stroke-linejoin:round"></rect><rect x="347.56" y="279.56" width="9.65" height="9.65" style="fill:#263238;stroke:#263238;stroke-linecap:round;stroke-linejoin:round"></rect><rect x="362.92" y="279.56" width="9.65" height="9.65" style="fill:#263238;stroke:#263238;stroke-linecap:round;stroke-linejoin:round"></rect><rect x="378.29" y="279.56" width="9.65" height="9.65" style="fill:#263238;stroke:#263238;stroke-linecap:round;stroke-linejoin:round"></rect><rect x="393.65" y="279.56" width="9.65" height="9.65" style="fill:#263238;stroke:#263238;stroke-linecap:round;stroke-linejoin:round"></rect><rect x="347.56" y="293.14" width="9.65" height="9.65" style="fill:#263238;stroke:#263238;stroke-linecap:round;stroke-linejoin:round"></rect><rect x="362.92" y="293.14" width="9.65" height="9.65" style="fill:#263238;stroke:#263238;stroke-linecap:round;stroke-linejoin:round"></rect><rect x="378.29" y="293.14" width="9.65" height="9.65" style="fill:#263238;stroke:#263238;stroke-linecap:round;stroke-linejoin:round"></rect><rect x="393.65" y="293.14" width="9.65" height="9.65" style="fill:#263238;stroke:#263238;stroke-linecap:round;stroke-linejoin:round"></rect><rect x="238.93" y="288.71" width="95.41" height="26.09" style="fill:#fff;stroke:#263238;stroke-linecap:round;stroke-linejoin:round"></rect><rect x="238.93" y="288.71" width="95.41" height="6.71" style="fill:#263238;stroke:#263238;stroke-linecap:round;stroke-linejoin:round"></rect><rect x="235.71" y="279.42" width="101.84" height="13.58" style="fill:#fff;stroke:#263238;stroke-linecap:round;stroke-linejoin:round"></rect><rect x="243.93" y="295.86" width="39.66" height="18.94" style="fill:#fff;stroke:#263238;stroke-linecap:round;stroke-linejoin:round"></rect><rect x="289.67" y="295.86" width="39.66" height="18.94" style="fill:#fff;stroke:#263238;stroke-linecap:round;stroke-linejoin:round"></rect><line x1="243.99" y1="298.14" x2="283.42" y2="298.14" style="fill:none;stroke:#263238;stroke-linecap:round;stroke-linejoin:round"></line><line x1="243.99" y1="300.27" x2="283.42" y2="300.27" style="fill:none;stroke:#263238;stroke-linecap:round;stroke-linejoin:round"></line><line x1="243.99" y1="302.39" x2="283.42" y2="302.39" style="fill:none;stroke:#263238;stroke-linecap:round;stroke-linejoin:round"></line><line x1="243.99" y1="304.52" x2="283.42" y2="304.52" style="fill:none;stroke:#263238;stroke-linecap:round;stroke-linejoin:round"></line><line x1="243.99" y1="306.64" x2="283.42" y2="306.64" style="fill:none;stroke:#263238;stroke-linecap:round;stroke-linejoin:round"></line><line x1="243.99" y1="308.77" x2="283.42" y2="308.77" style="fill:none;stroke:#263238;stroke-linecap:round;stroke-linejoin:round"></line><line x1="243.99" y1="310.89" x2="283.42" y2="310.89" style="fill:none;stroke:#263238;stroke-linecap:round;stroke-linejoin:round"></line><line x1="243.99" y1="313.02" x2="283.42" y2="313.02" style="fill:none;stroke:#263238;stroke-linecap:round;stroke-linejoin:round"></line><line x1="289.74" y1="298.14" x2="329.17" y2="298.14" style="fill:none;stroke:#263238;stroke-linecap:round;stroke-linejoin:round"></line><line x1="289.74" y1="300.27" x2="329.17" y2="300.27" style="fill:none;stroke:#263238;stroke-linecap:round;stroke-linejoin:round"></line><line x1="289.74" y1="302.39" x2="329.17" y2="302.39" style="fill:none;stroke:#263238;stroke-linecap:round;stroke-linejoin:round"></line><line x1="289.74" y1="304.52" x2="329.17" y2="304.52" style="fill:none;stroke:#263238;stroke-linecap:round;stroke-linejoin:round"></line><line x1="289.74" y1="306.64" x2="329.17" y2="306.64" style="fill:none;stroke:#263238;stroke-linecap:round;stroke-linejoin:round"></line><line x1="289.74" y1="308.77" x2="329.17" y2="308.77" style="fill:none;stroke:#263238;stroke-linecap:round;stroke-linejoin:round"></line><line x1="289.74" y1="310.89" x2="329.17" y2="310.89" style="fill:none;stroke:#263238;stroke-linecap:round;stroke-linejoin:round"></line><line x1="289.74" y1="313.02" x2="329.17" y2="313.02" style="fill:none;stroke:#263238;stroke-linecap:round;stroke-linejoin:round"></line><rect x="257.63" y="243.47" width="14" height="30" style="fill:#263238;stroke:#263238;stroke-linecap:round;stroke-linejoin:round"></rect><rect x="278.96" y="243.47" width="14" height="30" style="fill:#263238;stroke:#263238;stroke-linecap:round;stroke-linejoin:round"></rect><rect x="300.3" y="243.47" width="14" height="30" style="fill:#263238;stroke:#263238;stroke-linecap:round;stroke-linejoin:round"></rect><line x1="454.74" y1="314.8" x2="458.61" y2="314.8" style="fill:none;stroke:#263238;stroke-linecap:round;stroke-linejoin:round"></line><line x1="49.43" y1="314.8" x2="450.69" y2="314.8" style="fill:none;stroke:#263238;stroke-linecap:round;stroke-linejoin:round"></line><line x1="34.17" y1="320.89" x2="468.66" y2="320.89" style="fill:none;stroke:#263238;stroke-linecap:round;stroke-linejoin:round"></line><line x1="37.84" y1="314.8" x2="42.68" y2="314.8" style="fill:none;stroke:#263238;stroke-linecap:round;stroke-linejoin:round"></line></g></svg>