<svg width="140" height="53" viewBox="0 0 140 53" fill="none" xmlns="http://www.w3.org/2000/svg">
<path d="M26.3 52.6C40.8251 52.6 52.6 40.8251 52.6 26.3C52.6 11.7749 40.8251 0 26.3 0C11.7749 0 0 11.7749 0 26.3C0 40.8251 11.7749 52.6 26.3 52.6Z" fill="#DA6B32"/>
<path d="M40.56 11.5512C41.4884 12.0603 42.1771 12.9166 42.4752 13.9326C42.7732 14.9486 42.6563 16.0413 42.15 16.9712L29.69 39.8812C29.181 40.807 28.3264 41.4937 27.3128 41.7916C26.2992 42.0895 25.209 41.9743 24.28 41.4712C23.3516 40.9622 22.6629 40.1058 22.3649 39.0898C22.0668 38.0738 22.1838 36.9811 22.69 36.0512L35.17 13.1512C35.4204 12.6885 35.7595 12.2797 36.1681 11.9483C36.5767 11.6168 37.0466 11.3693 37.551 11.2197C38.0554 11.0701 38.5844 11.0216 39.1076 11.0767C39.6308 11.1319 40.1379 11.2897 40.6 11.5412L40.56 11.5512Z" fill="white"/>
<path d="M14.6893 15.9492C12.9793 16.9992 12.0093 18.7892 12.8893 20.6392L22.3793 39.7092C22.8411 40.6637 23.663 41.3958 24.6643 41.7446C25.6656 42.0933 26.7645 42.0303 27.7194 41.5692C28.6628 41.1091 29.3875 40.2967 29.7374 39.3071C30.0872 38.3175 30.0341 37.23 29.5894 36.2792L20.4893 17.4292" fill="white"/>
<path d="M14.1896 28.5784L11.8897 32.1984C11.2926 33.0178 10.4391 33.6143 9.46439 33.8933C8.48972 34.1723 7.4498 34.1178 6.50965 33.7384C5.81043 33.508 5.19243 33.081 4.72965 32.5084C4.50804 32.2053 4.38446 31.8416 4.37552 31.4663C4.36658 31.0909 4.47269 30.7217 4.67963 30.4084L5.37964 29.2984L8.22965 24.9084L13.1296 17.3184C13.7273 16.5026 14.5791 15.9086 15.5512 15.6298C16.5233 15.351 17.5605 15.4033 18.4996 15.7784C19.2054 16.0069 19.8303 16.434 20.2996 17.0084C20.5138 17.3167 20.6287 17.683 20.6287 18.0584C20.6287 18.4338 20.5138 18.8002 20.2996 19.1084L19.5496 20.2184L14.1896 28.5784Z" fill="white"/>
<path d="M42.5509 34.7894C44.8098 34.7894 46.6409 32.9582 46.6409 30.6994C46.6409 28.4405 44.8098 26.6094 42.5509 26.6094C40.2921 26.6094 38.4609 28.4405 38.4609 30.6994C38.4609 32.9582 40.2921 34.7894 42.5509 34.7894Z" fill="white"/>
<path d="M68.0391 17.6011C68.0467 17.4711 68.1038 17.349 68.1987 17.2597C68.2935 17.1705 68.4189 17.1209 68.5491 17.1211H69.2491L79.9791 27.4411V17.8911C79.9791 17.7558 80.0328 17.6261 80.1285 17.5305C80.2241 17.4348 80.3538 17.3811 80.4891 17.3811H83.6891C83.8235 17.3837 83.9518 17.4382 84.0469 17.5333C84.142 17.6284 84.1965 17.7566 84.1991 17.8911V35.9911C84.1939 36.122 84.1375 36.2456 84.0422 36.3353C83.9468 36.4251 83.82 36.4738 83.6891 36.4711H83.2791C83.151 36.4606 83.029 36.4118 82.9291 36.3311L72.3091 25.6811V35.6811C72.3104 35.7481 72.2985 35.8147 72.2741 35.877C72.2497 35.9394 72.2132 35.9964 72.1668 36.0447C72.1204 36.093 72.0649 36.1316 72.0035 36.1585C71.9422 36.1853 71.8761 36.1998 71.8091 36.2011H68.5991C68.4637 36.196 68.3354 36.1393 68.2406 36.0426C68.1458 35.9459 68.0916 35.8165 68.0891 35.6811L68.0391 17.6011Z" fill="#171717"/>
<path d="M99.8101 17.1212C101.725 17.1133 103.598 17.6733 105.195 18.7304C106.791 19.7874 108.038 21.2941 108.778 23.0598C109.518 24.8256 109.717 26.7711 109.352 28.6504C108.986 30.5296 108.071 32.2582 106.723 33.6175C105.375 34.9769 103.654 35.9059 101.778 36.2872C99.9015 36.6685 97.9544 36.4848 96.1826 35.7595C94.4108 35.0342 92.8939 33.7997 91.8237 32.2123C90.7535 30.6248 90.178 28.7557 90.1701 26.8412C90.1635 25.5718 90.4072 24.3135 90.8872 23.1383C91.3672 21.9632 92.0741 20.8941 92.9675 19.9923C93.861 19.0905 94.9234 18.3737 96.0941 17.8827C97.2647 17.3918 98.5206 17.1364 99.79 17.1312L99.8101 17.1212ZM99.8101 32.1812C100.874 32.195 101.919 31.8927 102.811 31.3126C103.704 30.7326 104.404 29.9008 104.824 28.9225C105.244 27.9443 105.364 26.8635 105.169 25.8171C104.974 24.7706 104.473 23.8054 103.73 23.0437C102.986 22.2819 102.033 21.7579 100.992 21.5378C99.9504 21.3178 98.8671 21.4116 97.879 21.8075C96.8909 22.2033 96.0424 22.8834 95.4409 23.7616C94.8395 24.6399 94.512 25.6768 94.5001 26.7412V26.8312C94.5079 28.2399 95.0689 29.5891 96.0621 30.588C97.0554 31.5869 98.4015 32.1555 99.8101 32.1712V32.1812Z" fill="#171717"/>
<path d="M112.861 18.0893C112.804 17.9776 112.793 17.8482 112.83 17.7286C112.868 17.609 112.95 17.5088 113.061 17.4493C113.138 17.4001 113.23 17.3789 113.321 17.3893H116.901C116.996 17.3946 117.088 17.424 117.168 17.4747C117.249 17.5254 117.315 17.5958 117.361 17.6793L121.791 27.4793H121.961L126.391 17.6793C126.437 17.5944 126.505 17.5231 126.588 17.4723C126.67 17.4215 126.764 17.3929 126.861 17.3893H130.441C130.566 17.381 130.69 17.4225 130.786 17.5048C130.881 17.5871 130.941 17.7037 130.951 17.8293C130.961 17.9203 130.94 18.012 130.891 18.0893L122.411 36.1793C122.371 36.2664 122.308 36.3408 122.229 36.3938C122.149 36.4469 122.056 36.4765 121.961 36.4793H121.691C121.595 36.4754 121.503 36.4453 121.424 36.3924C121.344 36.3395 121.281 36.2657 121.241 36.1793L112.861 18.0893Z" fill="#171717"/>
<path d="M135.76 17.9006C135.76 17.7671 135.812 17.6388 135.906 17.5435C135.999 17.4481 136.126 17.3932 136.26 17.3906H139.48C139.615 17.3931 139.745 17.4473 139.841 17.5421C139.938 17.637 139.995 17.7653 140 17.9006V35.6906C139.995 35.827 139.938 35.9564 139.842 36.0528C139.746 36.1493 139.616 36.2057 139.48 36.2106H136.26C136.126 36.2031 136 36.1453 135.908 36.0488C135.815 35.9524 135.762 35.8244 135.76 35.6906V17.9006Z" fill="#171717"/>
</svg>
