<svg xmlns="http://www.w3.org/2000/svg" xmlns:xlink="http://www.w3.org/1999/xlink" viewBox="0 0 500 500"><defs><clipPath id="freepik--clip-path--inject-338"><rect x="118.35" y="99.82" width="222.01" height="206.52" style="fill:#CC2952;stroke:#263238;stroke-linecap:round;stroke-linejoin:round;stroke-width:0.75px"></rect></clipPath><clipPath id="freepik--clip-path-2--inject-338"><rect x="118.35" y="99.82" width="222.01" height="206.52" style="fill:#fff;opacity:0.5"></rect></clipPath><clipPath id="freepik--clip-path-3--inject-338"><rect x="118.8" y="99.82" width="222.01" height="206.52" style="fill:none"></rect></clipPath><clipPath id="freepik--clip-path-4--inject-338"><polygon points="369.48 224.04 354.98 233.04 354.98 396.24 372.48 396.24 372.48 224.04 369.48 224.04" style="fill:#CC2952;stroke:#263238;stroke-linecap:round;stroke-linejoin:round;stroke-width:0.75px"></polygon></clipPath><clipPath id="freepik--clip-path-5--inject-338"><polygon points="449.98 224.04 435.48 233.04 435.48 396.24 452.98 396.24 452.98 224.04 449.98 224.04" style="fill:#CC2952;stroke:#263238;stroke-linecap:round;stroke-linejoin:round;stroke-width:0.75px"></polygon></clipPath><clipPath id="freepik--clip-path-6--inject-338"><polygon points="417.71 212.14 410.94 212.14 408.7 213.48 408.7 216.65 410.94 218.89 417.71 218.89 419.95 216.65 419.95 213.48 417.71 212.14" style="fill:#CC2952;stroke:#263238;stroke-linecap:round;stroke-linejoin:round;stroke-width:0.75px"></polygon></clipPath><clipPath id="freepik--clip-path-7--inject-338"><polygon points="431.05 212.14 424.28 212.14 422.04 213.48 422.04 216.65 424.28 218.89 431.05 218.89 433.29 216.65 433.29 213.48 431.05 212.14" style="fill:#CC2952;stroke:#263238;stroke-linecap:round;stroke-linejoin:round;stroke-width:0.75px"></polygon></clipPath><clipPath id="freepik--clip-path-8--inject-338"><path d="M434,211.35H407.74a.76.76,0,0,1-.54-1.3l3.21-3.22h20.91l3.21,3.22A.76.76,0,0,1,434,211.35Z" style="fill:#fff;stroke:#263238;stroke-linecap:round;stroke-linejoin:round;stroke-width:0.75px"></path></clipPath><clipPath id="freepik--clip-path-9--inject-338"><path d="M426.82,197.84H414.91a3.3,3.3,0,0,0-3.23,2.65l-1.27,6.34h20.91l-1.27-6.34A3.3,3.3,0,0,0,426.82,197.84Z" style="fill:#fff;stroke:#263238;stroke-linecap:round;stroke-linejoin:round;stroke-width:0.75px"></path></clipPath><clipPath id="freepik--clip-path-10--inject-338"><path d="M393.81,282.8h-17a2.12,2.12,0,0,1-2.11-2.32l1.42-14.87h18.36l1.43,14.87A2.12,2.12,0,0,1,393.81,282.8Z" style="fill:#CC2952;stroke:#263238;stroke-linecap:round;stroke-linejoin:round;stroke-width:0.75px"></path></clipPath><clipPath id="freepik--clip-path-11--inject-338"><path d="M403.68,265.61l.5,5.17a2.91,2.91,0,0,0,2.9,2.64h17.25a2.91,2.91,0,0,0,2.9-2.64l.5-5.17Z" style="fill:#CC2952;stroke:#263238;stroke-linecap:round;stroke-linejoin:round;stroke-width:0.75px"></path></clipPath><clipPath id="freepik--clip-path-12--inject-338"><path d="M419.52,266.61a1,1,0,0,1-1-1v-3.15h-5.63v3.15a1,1,0,0,1-2,0v-4.15a1,1,0,0,1,1-1h7.63a1,1,0,0,1,1,1v4.15A1,1,0,0,1,419.52,266.61Z" style="fill:#CC2952;stroke:#263238;stroke-linecap:round;stroke-linejoin:round;stroke-width:0.75px"></path></clipPath><clipPath id="freepik--clip-path-13--inject-338"><path d="M420.23,307.48a37.6,37.6,0,0,1,.86-4.17H415.3a4.76,4.76,0,0,0-3.95,2.1,99.11,99.11,0,0,1-9.94,5.37c-.87.35-2.94.19-3.66.79s-1.11,2.34-1.27,3.18v0a1.86,1.86,0,0,0,1.83,2.21h20.56a2,2,0,0,0,1.94-2.19A59.66,59.66,0,0,1,420.23,307.48Z" style="fill:#CC2952;stroke:#263238;stroke-linecap:round;stroke-linejoin:round;stroke-width:0.75px"></path></clipPath><clipPath id="freepik--clip-path-14--inject-338"><path d="M432.15,307.48a38.16,38.16,0,0,1,.85-4.17h-5.79a4.78,4.78,0,0,0-3.95,2.1c-.28.43-8.4,4.75-9.94,5.37-.86.35-2.94.19-3.65.79s-1.11,2.34-1.27,3.18v0a1.87,1.87,0,0,0,1.84,2.21h20.55a2,2,0,0,0,1.94-2.19A57.53,57.53,0,0,1,432.15,307.48Z" style="fill:#CC2952;stroke:#263238;stroke-linecap:round;stroke-linejoin:round;stroke-width:0.75px"></path></clipPath><clipPath id="freepik--clip-path-15--inject-338"><rect x="373.04" y="167.74" width="62.27" height="20.82" style="fill:#CC2952;stroke:#263238;stroke-linecap:round;stroke-linejoin:round;stroke-width:0.75px"></rect></clipPath><clipPath id="freepik--clip-path-16--inject-338"><path d="M194.6,202a22.25,22.25,0,0,1-9.94-2.34H179.1v15.5h31.16v-15.5h-5.71A22.29,22.29,0,0,1,194.6,202Z" style="fill:#CC2952;stroke:#263238;stroke-linecap:round;stroke-linejoin:round;stroke-width:0.75px"></path></clipPath><clipPath id="freepik--clip-path-17--inject-338"><path d="M212,237.83H177a5.12,5.12,0,0,0-4.77,3.26l.37,8.14a5.12,5.12,0,0,0,4.7,3.1h34.42a5.15,5.15,0,0,0,4-2l.61-10.14A5.1,5.1,0,0,0,212,237.83Z" style="fill:#263238;stroke:#263238;stroke-linecap:round;stroke-linejoin:round;stroke-width:0.75px"></path></clipPath><clipPath id="freepik--clip-path-18--inject-338"><path d="M199.06,280.55s2.72,1.71,7.64-1l-4.24-66.06a12.65,12.65,0,0,0-12.62-11.83H160.22a12.64,12.64,0,0,0-12.61,11.83l-4.24,66.06a11.41,11.41,0,0,0,7.64,1l4-45.37,3,29.46-7,81s24.09,5.3,48.25,0l-6-81,2.35-22.55Z" style="fill:#CC2952;stroke:#263238;stroke-linecap:round;stroke-linejoin:round;stroke-width:0.75px"></path></clipPath><clipPath id="freepik--clip-path-19--inject-338"><path d="M152,202a22.25,22.25,0,0,1-9.94-2.34h-5.56v15.5h31.16v-15.5h-5.71A22.29,22.29,0,0,1,152,202Z" style="fill:#263238;stroke:#263238;stroke-linecap:round;stroke-linejoin:round;stroke-width:0.75px"></path></clipPath><clipPath id="freepik--clip-path-20--inject-338"><path d="M134.35,199.66a9.5,9.5,0,0,1-18.57,0h-2.21a11.7,11.7,0,0,0,23.14,0Z" style="fill:#CC2952;stroke:#263238;stroke-linecap:round;stroke-linejoin:round;stroke-width:0.75px"></path></clipPath><clipPath id="freepik--clip-path-21--inject-338"><path d="M253.38,332.48s-9.56-45-9.14-76.68c.07-5.61,1.76-19.91,2.49-25.87a7,7,0,0,0-1.22-4.89l-6.34-9.15-8.75,8.74-8.74-8.74-6.33,9.49a7,7,0,0,0-1.16,4.53c.5,5.8,1.69,20.26,1.65,25.88-.22,31.7-10.15,76.69-10.15,76.69S220.52,341.85,253.38,332.48Z" style="fill:#CC2952;stroke:#263238;stroke-linecap:round;stroke-linejoin:round;stroke-width:0.75px"></path></clipPath><clipPath id="freepik--clip-path-22--inject-338"><polygon points="164.38 137.49 169.71 134.08 172.61 139.69 178.93 139.4 178.63 145.72 184.25 148.62 180.84 153.94 184.25 159.27 178.63 162.17 178.93 168.49 172.61 168.19 169.71 173.81 164.38 170.4 159.06 173.81 156.16 168.19 149.84 168.49 150.13 162.17 144.51 159.27 147.93 153.94 144.51 148.62 150.13 145.72 149.84 139.4 156.16 139.69 159.06 134.08 164.38 137.49" style="fill:#CC2952;stroke:#263238;stroke-linecap:round;stroke-linejoin:round;stroke-width:0.75px"></polygon></clipPath><clipPath id="freepik--clip-path-23--inject-338"><path d="M316.85,206.53s1.39,2.07-.9,5.32c-1.54,2.17.81,5.32,4.25,5.32,7.84,0,10.07-10.12,10.07-10.12s-3.39-.22-3.87-15.15Z" style="fill:#fff;stroke:#263238;stroke-linecap:round;stroke-linejoin:round;stroke-width:0.75px"></path></clipPath><clipPath id="freepik--clip-path-24--inject-338"><path d="M300.07,229.29v46.27h8.5l-2-70.61H266.14a4.5,4.5,0,0,0-4.5,4.35l-1.85,66.26h8.5V230.34L272,260.7l-7.59,44.11s16.59,7.88,39.48,0l-7.68-44.45Z" style="fill:#CC2952;stroke:#263238;stroke-linecap:round;stroke-linejoin:round;stroke-width:0.75px"></path></clipPath></defs><g id="freepik--background-simple--inject-338"><path d="M53.5,319c-25.91-47-10.42-93.2,26-127.19C119,154.94,193,125.51,265,121.41c42.67-2.43,128.26-1.07,164,48.22,29,40,25.49,121.3-30,136.59-71,19.55-110.25-39.06-164-19.12-37.46,13.9-40,68-84.5,77.16A89.74,89.74,0,0,1,53.5,319Z" style="fill:#CC2952"></path><path d="M53.5,319c-25.91-47-10.42-93.2,26-127.19C119,154.94,193,125.51,265,121.41c42.67-2.43,128.26-1.07,164,48.22,29,40,25.49,121.3-30,136.59-71,19.55-110.25-39.06-164-19.12-37.46,13.9-40,68-84.5,77.16A89.74,89.74,0,0,1,53.5,319Z" style="fill:#fff;opacity:0.7000000000000001"></path></g><g id="freepik--Shadow--inject-338"><ellipse cx="202.02" cy="414.48" rx="159.97" ry="9.69" style="fill:#CC2952"></ellipse></g><g id="freepik--Floor--inject-338"><line x1="43.22" y1="396.24" x2="456.78" y2="396.24" style="fill:none;stroke:#263238;stroke-linecap:round;stroke-linejoin:round"></line></g><g id="freepik--Bricks--inject-338"><rect x="50.5" y="167.02" width="30.56" height="8.2" rx="1.32" transform="translate(131.56 342.24) rotate(180)" style="fill:none;stroke:#263238;stroke-linecap:round;stroke-linejoin:round;stroke-width:0.75px"></rect><rect x="64.12" y="155.52" width="30.55" height="8.2" rx="1.32" transform="translate(158.79 319.23) rotate(180)" style="fill:none;stroke:#263238;stroke-linecap:round;stroke-linejoin:round;stroke-width:0.75px"></rect><rect x="55.09" y="144.17" width="30.56" height="8.2" rx="1.32" transform="translate(140.74 296.55) rotate(180)" style="fill:none;stroke:#263238;stroke-linecap:round;stroke-linejoin:round;stroke-width:0.75px"></rect><rect x="71.71" y="132.67" width="30.55" height="8.2" rx="1.32" transform="translate(173.97 273.54) rotate(180)" style="fill:none;stroke:#263238;stroke-linecap:round;stroke-linejoin:round;stroke-width:0.75px"></rect><rect x="65.6" y="308.8" width="30.56" height="8.2" rx="1.32" style="fill:none;stroke:#263238;stroke-linecap:round;stroke-linejoin:round;stroke-width:0.75px"></rect><rect x="49.99" y="320.31" width="30.55" height="8.2" rx="1.32" style="fill:none;stroke:#263238;stroke-linecap:round;stroke-linejoin:round;stroke-width:0.75px"></rect><rect x="61.01" y="331.65" width="30.55" height="8.2" rx="1.32" style="fill:none;stroke:#263238;stroke-linecap:round;stroke-linejoin:round;stroke-width:0.75px"></rect><rect x="45.4" y="343.15" width="30.55" height="8.2" rx="1.32" style="fill:none;stroke:#263238;stroke-linecap:round;stroke-linejoin:round;stroke-width:0.75px"></rect><rect x="414.56" y="145.75" width="30.55" height="8.2" rx="1.32" transform="translate(859.68 299.69) rotate(180)" style="fill:none;stroke:#263238;stroke-linecap:round;stroke-linejoin:round;stroke-width:0.75px"></rect><rect x="381.17" y="145.75" width="30.55" height="8.2" rx="1.32" transform="translate(792.89 299.69) rotate(180)" style="fill:none;stroke:#263238;stroke-linecap:round;stroke-linejoin:round;stroke-width:0.75px"></rect><rect x="396.79" y="134.24" width="30.55" height="8.2" rx="1.32" transform="translate(824.13 276.68) rotate(180)" style="fill:none;stroke:#263238;stroke-linecap:round;stroke-linejoin:round;stroke-width:0.75px"></rect><rect x="363.46" y="134.24" width="30.55" height="8.2" rx="1.32" transform="translate(757.48 276.68) rotate(180)" style="fill:none;stroke:#263238;stroke-linecap:round;stroke-linejoin:round;stroke-width:0.75px"></rect><rect x="385.76" y="122.9" width="30.55" height="8.2" rx="1.32" transform="translate(802.07 254) rotate(180)" style="fill:none;stroke:#263238;stroke-linecap:round;stroke-linejoin:round;stroke-width:0.75px"></rect><rect x="401.38" y="111.39" width="30.55" height="8.2" rx="1.32" transform="translate(833.31 230.98) rotate(180)" style="fill:none;stroke:#263238;stroke-linecap:round;stroke-linejoin:round;stroke-width:0.75px"></rect><rect x="368.05" y="111.39" width="30.55" height="8.2" rx="1.32" transform="translate(766.66 230.98) rotate(180)" style="fill:none;stroke:#263238;stroke-linecap:round;stroke-linejoin:round;stroke-width:0.75px"></rect></g><g id="freepik--Window--inject-338"><rect x="118.35" y="99.82" width="222.01" height="206.52" style="fill:#CC2952"></rect><g style="clip-path:url(#freepik--clip-path--inject-338)"><rect x="118.35" y="99.82" width="222.01" height="206.52" style="fill:#fff;opacity:0.5"></rect><g style="clip-path:url(#freepik--clip-path-2--inject-338)"><g style="clip-path:url(#freepik--clip-path-3--inject-338)"><polygon points="173.24 314.08 146.63 314.08 221.79 92.07 248.39 92.07 173.24 314.08" style="fill:#fff;opacity:0.6000000000000001"></polygon><polygon points="205.03 314.08 188.57 314.08 263.72 92.07 280.18 92.07 205.03 314.08" style="fill:#fff;opacity:0.6000000000000001"></polygon><polygon points="112.91 270.01 173.14 92.07 156.68 92.07 112.91 221.39 112.91 270.01" style="fill:#fff;opacity:0.6000000000000001"></polygon><polygon points="345.23 133.03 345.23 96.44 322.06 96.44 248.38 314.08 285.41 314.08 346.7 133.03 345.23 133.03" style="fill:#fff;opacity:0.6000000000000001"></polygon></g></g></g><rect x="118.35" y="99.82" width="222.01" height="206.52" style="fill:none;stroke:#263238;stroke-linecap:round;stroke-linejoin:round;stroke-width:0.75px"></rect><rect x="107.98" y="89.45" width="242.75" height="227.26" style="fill:none;stroke:#263238;stroke-linecap:round;stroke-linejoin:round;stroke-width:0.75px"></rect><path d="M118.35,100.81s112.7,40.82,222,0" style="fill:none;stroke:#263238;stroke-linecap:round;stroke-linejoin:round;stroke-width:0.75px"></path><path d="M149,136.1q-4-2.91-7.84-5.91c-3.2.59-6.42,1.16-9.68,1.66l7-25.88c5.38,1.43,10.8,2.77,16.27,3.94Z" style="fill:#CC2952"></path><path d="M139.56,118.26c.93.23,1.55-.22,1.81-1.26l.15-.57a1.34,1.34,0,0,0-.35-1.52v0c.51-.07.82-.44,1-1.14l.06-.23c.26-1-.07-1.73-.95-2s-1.5.24-1.77,1.28l-.09.34.88.22.11-.42c.11-.43.33-.56.6-.49s.42.3.3.76l-.12.48c-.13.52-.39.63-.74.55l-.33-.09-.24.93.31.08c.43.11.56.38.4,1l-.13.53c-.15.58-.38.69-.67.61s-.45-.3-.33-.76l.15-.58-.88-.22-.14.53C138.31,117.33,138.64,118,139.56,118.26Z" style="fill:#fff"></path><path d="M143,119.13c.92.22,1.57-.26,1.83-1.3l.82-3.44c.25-1-.1-1.76-1-2s-1.55.24-1.81,1.28l-.86,3.43C141.73,118.17,142.09,118.9,143,119.13Zm.22-.93c-.3-.08-.44-.3-.33-.77l.88-3.56c.12-.46.34-.59.64-.52s.44.29.32.76l-.86,3.56C143.78,118.13,143.54,118.27,143.24,118.2Z" style="fill:#fff"></path><path d="M146.65,116.82c.59.14,1-.15,1.15-.83l.38-1.63c.16-.68-.06-1.12-.65-1.26s-1,.16-1.14.83l-.39,1.64C145.84,116.24,146.07,116.69,146.65,116.82Zm.14-.58c-.19,0-.27-.2-.21-.49L147,114c.07-.29.21-.39.41-.34s.27.19.2.48l-.4,1.73C147.13,116.19,147,116.28,146.79,116.24Zm-1,3.45.6.15,3.83-6-.6-.13Zm2.77.75c.59.13,1-.17,1.15-.84l.37-1.64c.15-.68-.08-1.12-.67-1.25s-1,.16-1.15.84l-.37,1.63C147.76,119.86,148,120.31,148.59,120.44Zm.13-.59c-.2,0-.28-.19-.21-.48l.39-1.73c.07-.29.21-.38.4-.34s.28.19.22.48l-.4,1.73C149.06,119.8,148.91,119.89,148.72,119.85Z" style="fill:#fff"></path><path d="M138.85,126.66c1,.24,1.61-.23,1.87-1.27l.84-3.43c.26-1-.1-1.77-1-2s-1.58.23-1.85,1.27l-.87,3.42A1.45,1.45,0,0,0,138.85,126.66Zm.23-.93c-.3-.08-.45-.3-.33-.77l.9-3.55c.11-.47.35-.6.65-.52s.45.3.33.77l-.89,3.55C139.63,125.68,139.39,125.81,139.08,125.73Z" style="fill:#fff"></path><path d="M141,127.1l1,.23.69-2.85,1.24.3.22-.94-1.23-.29.44-1.82,1.56.37.23-.93-2.52-.6Z" style="fill:#fff"></path><path d="M144,127.82l1,.22.66-2.85,1.24.3.21-.94-1.23-.29.43-1.82,1.56.37.22-.94-2.52-.59Z" style="fill:#fff"></path><path d="M184.44,142.19c-2.8-1.72-5.58-3.41-8.31-5.19l-4.71,1.3-4.75,1.23,4.55-26.41,4.14.7,4.15.63c2.77.44,5.55.79,8.32,1.16Z" style="fill:#CC2952"></path><path d="M173.44,125.27c.95.15,1.53-.36,1.69-1.42l.1-.59a1.31,1.31,0,0,0-.49-1.47v0c.5-.12.78-.52.89-1.23l0-.24c.17-1.06-.22-1.71-1.12-1.85s-1.47.35-1.65,1.41l-.06.35.9.16.07-.44c.07-.44.28-.58.55-.54s.45.27.37.74l-.08.48c-.08.53-.32.68-.68.61l-.34-.06-.16,1,.32.06c.43.07.59.32.49.94l-.09.54c-.09.59-.31.72-.61.67s-.47-.26-.39-.74l.1-.59-.91-.15-.08.54C172.11,124.44,172.5,125.11,173.44,125.27Z" style="fill:#fff"></path><path d="M177,125.81c.95.14,1.55-.39,1.71-1.45l.52-3.5c.15-1.06-.26-1.74-1.19-1.88s-1.53.39-1.69,1.45l-.54,3.49C175.6,125,176,125.66,177,125.81Zm.15-1c-.31,0-.47-.26-.4-.73l.56-3.62c.07-.48.29-.63.59-.58s.46.25.39.72l-.55,3.63C177.63,124.75,177.41,124.9,177.11,124.86Z" style="fill:#fff"></path><path d="M180.38,123.21c.6.09,1-.24,1.07-.93l.24-1.66c.1-.68-.17-1.11-.76-1.2s-1,.24-1.06.93l-.25,1.66C179.52,122.69,179.79,123.12,180.38,123.21Zm.09-.6c-.2,0-.29-.17-.25-.46l.25-1.76c.05-.3.18-.4.37-.37s.3.17.25.46l-.25,1.76C180.8,122.53,180.66,122.64,180.47,122.61Zm-.66,3.53.61.09,3.28-6.33-.6-.08Zm2.82.49c.6.08,1-.26,1.07-.94l.23-1.67c.09-.68-.18-1.1-.78-1.18s-1,.26-1.07.94l-.23,1.66C181.75,126.13,182,126.55,182.63,126.63Zm.08-.6c-.2,0-.3-.16-.25-.46l.24-1.76c0-.29.17-.4.37-.37s.29.16.25.46l-.24,1.75C183,126,182.9,126.06,182.71,126Z" style="fill:#fff"></path><path d="M173.49,133.7c1,.14,1.58-.39,1.74-1.45l.54-3.49c.16-1.06-.26-1.75-1.21-1.89s-1.56.38-1.73,1.44l-.56,3.49C172.1,132.86,172.52,133.55,173.49,133.7Zm.15-.95c-.31-.05-.48-.26-.41-.73l.58-3.62c.07-.48.3-.63.6-.58s.48.26.4.73l-.56,3.62C174.17,132.64,174,132.79,173.64,132.75Z" style="fill:#fff"></path><path d="M175.65,133.93l1,.14.44-2.89,1.25.19.14-1-1.25-.19.28-1.85,1.59.24.13-1-2.55-.38Z" style="fill:#fff"></path><path d="M178.72,134.39l1,.15.41-2.9,1.26.17.13-.95-1.25-.17.26-1.85,1.6.21.13-1c-.86-.11-1.71-.22-2.56-.36Z" style="fill:#fff"></path><path d="M220.28,145.15c-2.95-1.48-5.87-2.9-8.75-4.42-3,1.11-6.12,2.28-9.21,3.35l2.21-26.71c2.79.24,5.58.4,8.37.6s5.58.27,8.37.4Z" style="fill:#CC2952"></path><path d="M207.81,129.26c1,.06,1.49-.49,1.56-1.56l0-.59a1.31,1.31,0,0,0-.61-1.43v0c.48-.16.72-.59.77-1.3l0-.24c.07-1.07-.38-1.69-1.28-1.75s-1.44.49-1.52,1.57l0,.35.91.06,0-.44c0-.44.23-.61.5-.59s.47.23.43.7l0,.49c0,.54-.27.7-.63.67l-.35,0-.06,1,.32,0c.44,0,.61.27.57.89l0,.55c0,.59-.25.74-.56.72s-.48-.22-.45-.7l0-.59-.92-.06,0,.54C206.41,128.57,206.86,129.19,207.81,129.26Z" style="fill:#fff"></path><path d="M211.37,129.5c.95.07,1.5-.51,1.57-1.58l.2-3.53c.06-1.07-.41-1.72-1.35-1.78s-1.48.51-1.55,1.58l-.23,3.52C209.93,128.79,210.41,129.44,211.37,129.5Zm.06-1c-.31,0-.49-.21-.46-.69l.23-3.66c0-.48.23-.65.54-.63s.48.22.45.7l-.22,3.66C211.94,128.39,211.73,128.56,211.43,128.54Z" style="fill:#fff"></path><path d="M214.54,126.61c.6,0,1-.34,1-1l.09-1.68c0-.69-.26-1.09-.86-1.12s-.94.35-1,1l-.1,1.67C213.63,126.18,213.94,126.58,214.54,126.61Zm0-.61c-.2,0-.3-.14-.29-.43l.1-1.77c0-.3.14-.42.34-.41s.3.14.29.43l-.1,1.78C214.89,125.89,214.77,126,214.57,126Zm-.34,3.58.62,0,2.7-6.6-.61,0Zm2.85.22c.61,0,.95-.34,1-1l.08-1.67c0-.69-.28-1.09-.88-1.12s-.94.34-1,1l-.08,1.68C216.17,129.38,216.47,129.78,217.08,129.8Zm0-.6c-.2,0-.31-.14-.3-.44l.09-1.77c0-.3.13-.41.33-.41s.31.14.3.44l-.08,1.77C217.43,129.09,217.3,129.21,217.11,129.2Z" style="fill:#fff"></path><path d="M208.6,137.65c1,.07,1.54-.51,1.61-1.58l.23-3.53c.07-1.07-.42-1.72-1.37-1.78s-1.52.51-1.6,1.58l-.25,3.52C207.14,136.94,207.63,137.58,208.6,137.65Zm.07-1c-.32,0-.5-.21-.47-.69l.25-3.66c0-.48.24-.65.55-.62s.5.21.47.69l-.25,3.66C209.19,136.55,209,136.71,208.67,136.69Z" style="fill:#fff"></path><path d="M210.78,137.7l1,.07.17-2.92,1.27.08.06-1-1.27-.08.11-1.87c.54,0,1.07.08,1.61.1l.05-1c-.86,0-1.71-.11-2.57-.16Z" style="fill:#fff"></path><path d="M213.88,137.89l1,.05L215,135l1.27.06.05-1-1.27-.05.1-1.87,1.61.07,0-1-2.58-.11Z" style="fill:#fff"></path><path d="M256.35,144.72c-3.09-1.16-6.14-2.28-9.17-3.56-2.92,1.41-5.88,2.91-8.87,4.22l-.3-26.8c2.79,0,5.57-.14,8.35-.2s5.56-.25,8.34-.41Z" style="fill:#CC2952"></path><path d="M242.39,130.12c1,0,1.43-.63,1.4-1.7l0-.6c0-.68-.22-1.16-.74-1.36v0c.46-.2.66-.65.64-1.37v-.24c0-1.07-.53-1.64-1.43-1.62s-1.38.64-1.36,1.72v.35l.91,0v-.44c0-.44.17-.63.45-.64s.48.18.49.66v.49c0,.54-.2.72-.56.73h-.35l0,1h.33c.44,0,.63.21.65.83v.55c0,.59-.17.76-.48.77s-.51-.17-.52-.64v-.6l-.91,0v.55C240.93,129.57,241.43,130.15,242.39,130.12Z" style="fill:#fff"></path><path d="M246,130c1,0,1.45-.66,1.41-1.73l-.14-3.53c0-1.08-.57-1.67-1.51-1.65s-1.42.66-1.39,1.74l.1,3.53C244.45,129.44,245,130,246,130Zm0-1c-.3,0-.5-.17-.52-.65l-.12-3.66c0-.48.17-.67.48-.68s.5.17.51.65l.13,3.66C246.41,128.85,246.22,129,245.91,129.05Z" style="fill:#fff"></path><path d="M248.83,126.84c.6,0,.91-.41.87-1.11l-.07-1.67c0-.69-.37-1.07-1-1s-.9.42-.87,1.11l.07,1.67C247.88,126.48,248.22,126.86,248.83,126.84Zm0-.61c-.2,0-.32-.11-.33-.41l-.07-1.77c0-.3.09-.43.29-.43s.32.11.33.41l.08,1.77C249.11,126.1,249,126.23,248.8,126.23Zm0,3.59.62,0,2.05-6.83-.61,0C250.19,125.29,249.51,127.57,248.8,129.82Zm2.86,0c.61,0,.92-.44.88-1.13l-.09-1.68c0-.69-.38-1-1-1s-.91.43-.87,1.12l.08,1.68C250.71,129.45,251.05,129.82,251.66,129.78Zm0-.6c-.2,0-.32-.11-.33-.41l-.09-1.77c0-.3.09-.43.29-.44s.32.11.34.4l.09,1.77C251.94,129,251.83,129.16,251.63,129.18Z" style="fill:#fff"></path><path d="M244,138.39c1,0,1.49-.66,1.46-1.73l-.12-3.53c0-1.07-.57-1.67-1.53-1.64s-1.46.66-1.44,1.73l.08,3.53C242.45,137.83,243,138.43,244,138.39Zm0-.95c-.31,0-.52-.17-.53-.65l-.09-3.66c0-.48.18-.67.49-.68s.51.16.52.64l.11,3.67C244.45,137.24,244.26,137.43,243.94,137.44Z" style="fill:#fff"></path><path d="M246.15,138.23l1,0-.11-2.92,1.28,0,0-1-1.27,0-.07-1.87,1.61,0,0-1-2.58.08Z" style="fill:#fff"></path><path d="M249.26,138.13l1,0-.13-2.92,1.27-.08,0-1-1.27.08-.08-1.87,1.61-.1,0-.95c-.86,0-1.72.11-2.58.12Z" style="fill:#fff"></path><path d="M292.33,140.57c-3.21-.8-6.39-1.7-9.53-2.56l-2.08,1.33-2.1,1.26-4.24,2.53-3.07-26.63c5.52-.59,11-1.45,16.46-2.34Z" style="fill:#CC2952"></path><path d="M276.86,127.53c.94-.11,1.36-.75,1.21-1.82l-.08-.59c-.09-.67-.34-1.13-.88-1.28v0c.44-.25.59-.71.49-1.42l0-.24c-.14-1.07-.7-1.59-1.6-1.48s-1.3.75-1.17,1.82l0,.35.9-.1-.06-.44c-.05-.44.1-.64.38-.68s.5.14.56.61l.06.49c.07.53-.12.73-.48.77l-.34,0,.12.95.32,0c.43-.06.65.15.74.77l.07.54c.07.59-.1.77-.4.81s-.52-.12-.58-.6l-.08-.59-.9.11.06.55C275.35,127.11,275.91,127.64,276.86,127.53Z" style="fill:#fff"></path><path d="M280.38,127.06c.94-.14,1.37-.83,1.21-1.89l-.5-3.5c-.16-1.06-.75-1.59-1.67-1.45s-1.34.83-1.2,1.89l.48,3.5C278.84,126.68,279.44,127.21,280.38,127.06Zm-.13-1c-.31,0-.52-.1-.59-.58l-.5-3.63c-.07-.47.09-.68.39-.73s.52.11.58.58l.52,3.63C280.72,125.86,280.55,126.07,280.25,126.11Z" style="fill:#fff"></path><path d="M282.9,123.56c.59-.09.85-.52.75-1.2l-.26-1.66c-.1-.68-.48-1-1.06-.92s-.85.51-.75,1.2l.25,1.66C281.93,123.32,282.3,123.65,282.9,123.56Zm-.09-.6c-.2,0-.33-.07-.37-.37l-.27-1.75c0-.3.05-.44.25-.47s.32.08.37.37l.26,1.76C283.1,122.79,283,122.93,282.81,123Zm.39,3.57.61-.09,1.29-7-.59.09Zm2.83-.33c.61-.1.87-.52.76-1.21l-.27-1.65c-.12-.68-.5-1-1.09-.92s-.85.52-.75,1.2l.26,1.66C285.05,126,285.43,126.29,286,126.2Zm-.09-.6c-.2,0-.33-.08-.38-.37l-.28-1.75c0-.3.05-.44.25-.47s.33.08.37.37l.29,1.76C286.23,125.43,286.13,125.57,285.94,125.6Z" style="fill:#fff"></path><path d="M279.3,135.62c1-.11,1.42-.82,1.27-1.88l-.48-3.5c-.15-1.06-.75-1.58-1.7-1.47s-1.39.78-1.26,1.85l.46,3.5C277.72,135.19,278.33,135.73,279.3,135.62Zm-.12-1c-.32,0-.54-.11-.6-.59l-.48-3.63c-.06-.48.11-.68.41-.72s.53.12.6.59l.49,3.64C279.66,134.42,279.49,134.63,279.18,134.66Z" style="fill:#fff"></path><path d="M281.45,135.22l1-.15-.42-2.9,1.26-.19-.14-.95-1.25.19-.27-1.85,1.59-.24-.14-.95-2.55.39Z" style="fill:#fff"></path><path d="M284.54,134.75l1-.15-.44-2.9,1.26-.19-.15-.95-1.26.19-.29-1.84,1.6-.25-.16-1-2.55.39Z" style="fill:#fff"></path><path d="M327.73,132.21l-4.91-.6-4.89-.77c-2.55,2-5.13,4.17-7.79,6.09L304,110.84c2.71-.56,5.35-1.34,8-2l4-1,3.95-1.21Z" style="fill:#CC2952"></path><path d="M310.8,121.15c.92-.24,1.25-.94,1-2l-.15-.57c-.17-.66-.48-1.09-1-1.16v0c.41-.31.5-.79.32-1.48l-.06-.24c-.26-1-.87-1.48-1.75-1.25s-1.19.93-.94,2l.09.35.87-.23-.11-.43c-.11-.43,0-.65.29-.72s.51.06.63.53l.12.47c.13.52,0,.75-.39.84l-.33.09.23.93.31-.08c.42-.12.66.06.82.66l.13.53c.15.58,0,.79-.3.87s-.53,0-.64-.52l-.14-.58-.88.24.13.53C309.26,120.94,309.88,121.39,310.8,121.15Z" style="fill:#fff"></path><path d="M314.24,120.24c.92-.24,1.26-1,1-2l-.92-3.41c-.28-1-.93-1.5-1.83-1.27s-1.23,1-1,2l.88,3.42C312.66,120,313.32,120.49,314.24,120.24Zm-.25-.93c-.29.08-.53,0-.65-.51l-.93-3.54c-.12-.47,0-.69.31-.77s.52.05.65.51l.94,3.55C314.43,119,314.29,119.24,314,119.31Z" style="fill:#fff"></path><path d="M316.33,116.5c.58-.15.79-.6.6-1.27l-.45-1.61c-.18-.67-.6-1-1.17-.81s-.78.61-.6,1.27l.44,1.62C315.33,116.37,315.75,116.66,316.33,116.5Zm-.16-.58c-.2,0-.34,0-.42-.33l-.47-1.71c-.08-.28,0-.43.19-.48s.34,0,.41.32l.48,1.72C316.44,115.72,316.35,115.87,316.17,115.92Zm.81,3.5.59-.16c.17-2.37.33-4.69.46-7.08l-.58.17Q317.24,115.88,317,119.42Zm2.78-.65c.58-.18.79-.64.59-1.31l-.46-1.61c-.2-.66-.61-.94-1.18-.76s-.79.61-.6,1.28l.46,1.62C318.75,118.65,319.18,119,319.76,118.77Zm-.17-.58c-.19.06-.33,0-.42-.32l-.48-1.7c-.08-.29,0-.44.18-.5s.34,0,.42.31l.49,1.71C319.86,118,319.78,118.13,319.59,118.19Z" style="fill:#fff"></path><path d="M314.17,128.87a1.47,1.47,0,0,0,1-2l-.89-3.41c-.27-1-.94-1.5-1.86-1.26a1.47,1.47,0,0,0-1,2l.85,3.42C312.55,128.66,313.22,129.12,314.17,128.87Zm-.24-.93c-.3.08-.54,0-.66-.51l-.9-3.56c-.12-.46,0-.69.33-.77s.53.05.65.51l.92,3.55C314.39,127.63,314.24,127.85,313.93,127.94Z" style="fill:#fff"></path><path d="M316.26,128.21l1-.25-.76-2.83,1.24-.32-.26-.93-1.22.32-.49-1.8,1.56-.41-.25-.93-2.5.66Z" style="fill:#fff"></path><path d="M319.28,127.41l1-.25-.79-2.82,1.24-.33-.27-.92-1.23.33-.5-1.8,1.56-.42-.27-.93-2.49.67Z" style="fill:#fff"></path></g><g id="freepik--Boxes--inject-338"><rect x="139.75" y="353.48" width="42.76" height="42.76" style="fill:none;stroke:#263238;stroke-linecap:round;stroke-linejoin:round;stroke-width:0.75px"></rect><polyline points="183.76 353.48 210.02 353.48 210.02 396.24 183.76 396.24" style="fill:none;stroke:#263238;stroke-linecap:round;stroke-linejoin:round;stroke-width:0.75px"></polyline><polyline points="194.26 354.73 194.26 365.93 194.94 365.31 196.14 366.06 197.19 365.31 198.54 366.06 199.97 365.31 200.87 366.06 201.91 365.51 201.91 354.73" style="fill:none;stroke:#263238;stroke-linecap:round;stroke-linejoin:round;stroke-width:0.75px"></polyline><rect x="217.9" y="360.82" width="35.43" height="35.43" style="fill:none;stroke:#263238;stroke-linecap:round;stroke-linejoin:round;stroke-width:0.75px"></rect><rect x="217.9" y="360.82" width="35.43" height="35.43" style="fill:none;stroke:#263238;stroke-linecap:round;stroke-linejoin:round;stroke-width:0.75px"></rect><polyline points="255.18 359.45 260.6 351.93 282.36 351.93 276.94 359.45" style="fill:none;stroke:#263238;stroke-linecap:round;stroke-linejoin:round;stroke-width:0.75px"></polyline><polyline points="255.06 360.82 276.82 360.82 276.82 396.24 255.06 396.24" style="fill:none;stroke:#263238;stroke-linecap:round;stroke-linejoin:round;stroke-width:0.75px"></polyline><polyline points="253.15 359.45 247.42 351.93 212 351.93 217.72 359.45" style="fill:none;stroke:#263238;stroke-linecap:round;stroke-linejoin:round;stroke-width:0.75px"></polyline><polyline points="115.28 371.09 115.28 396.24 88.36 396.24 88.36 378.18" style="fill:none;stroke:#263238;stroke-linecap:round;stroke-linejoin:round;stroke-width:0.75px"></polyline><polygon points="110.14 376.88 83.21 376.88 88.36 369.31 115.28 369.31 110.14 376.88" style="fill:none;stroke:#263238;stroke-linecap:round;stroke-linejoin:round;stroke-width:0.75px"></polygon><polygon points="121.48 376.88 138.02 376.88 133.14 369.31 116.6 369.31 121.48 376.88" style="fill:none;stroke:#263238;stroke-linecap:round;stroke-linejoin:round;stroke-width:0.75px"></polygon><polyline points="133.14 377.9 133.14 396.24 116.6 396.24" style="fill:none;stroke:#263238;stroke-linecap:round;stroke-linejoin:round;stroke-width:0.75px"></polyline></g><g id="freepik--Shelf--inject-338"><polygon points="369.48 224.04 354.98 233.04 354.98 396.24 372.48 396.24 372.48 224.04 369.48 224.04" style="fill:#CC2952"></polygon><g style="clip-path:url(#freepik--clip-path-4--inject-338)"><polygon points="369.48 224.04 354.98 233.04 354.98 396.24 372.48 396.24 372.48 224.04 369.48 224.04" style="fill:#fff;opacity:0.7000000000000001"></polygon></g><polygon points="369.48 224.04 354.98 233.04 354.98 396.24 372.48 396.24 372.48 224.04 369.48 224.04" style="fill:none;stroke:#263238;stroke-linecap:round;stroke-linejoin:round;stroke-width:0.75px"></polygon><polygon points="372.48 396.24 357.98 396.24 357.98 233.04 372.48 224.04 372.48 396.24" style="fill:#CC2952;stroke:#263238;stroke-linecap:round;stroke-linejoin:round;stroke-width:0.75px"></polygon><rect x="361.98" y="248.88" width="88" height="6.17" style="fill:#fff;stroke:#263238;stroke-linecap:round;stroke-linejoin:round;stroke-width:0.75px"></rect><rect x="361.98" y="282.8" width="88" height="6.17" style="fill:#fff;stroke:#263238;stroke-linecap:round;stroke-linejoin:round;stroke-width:0.75px"></rect><rect x="361.98" y="316.72" width="88" height="6.17" style="fill:#fff;stroke:#263238;stroke-linecap:round;stroke-linejoin:round;stroke-width:0.75px"></rect><rect x="361.98" y="350.63" width="88" height="6.17" style="fill:#fff;stroke:#263238;stroke-linecap:round;stroke-linejoin:round;stroke-width:0.75px"></rect><rect x="361.98" y="384.55" width="88" height="6.17" style="fill:#fff;stroke:#263238;stroke-linecap:round;stroke-linejoin:round;stroke-width:0.75px"></rect><polygon points="449.98 224.04 435.48 233.04 435.48 396.24 452.98 396.24 452.98 224.04 449.98 224.04" style="fill:#CC2952"></polygon><g style="clip-path:url(#freepik--clip-path-5--inject-338)"><polygon points="449.98 224.04 435.48 233.04 435.48 396.24 452.98 396.24 452.98 224.04 449.98 224.04" style="fill:#fff;opacity:0.6000000000000001"></polygon></g><polygon points="449.98 224.04 435.48 233.04 435.48 396.24 452.98 396.24 452.98 224.04 449.98 224.04" style="fill:none;stroke:#263238;stroke-linecap:round;stroke-linejoin:round;stroke-width:0.75px"></polygon><polygon points="452.98 396.24 438.48 396.24 438.48 233.04 452.98 224.04 452.98 396.24" style="fill:#CC2952;stroke:#263238;stroke-linecap:round;stroke-linejoin:round;stroke-width:0.75px"></polygon><rect x="419.58" y="229.63" width="1.93" height="16.76" style="fill:#858585;stroke:#263238;stroke-linecap:round;stroke-linejoin:round;stroke-width:0.75px"></rect><ellipse cx="420.54" cy="217.03" rx="10.79" ry="14.13" style="fill:#fff;stroke:#263238;stroke-linecap:round;stroke-linejoin:round;stroke-width:0.75px"></ellipse><path d="M425.87,244.34c-1.16-1.16,1-5.28,0-6.55-1.68-2.07-9-2.07-10.66,0-1,1.27,1.16,5.39,0,6.55-1,1-4.4-.86-5.46,0-.88.71-1.8,4.54-1.8,4.54h25.18s-.91-3.83-1.8-4.54C430.27,243.48,426.83,245.31,425.87,244.34Z" style="fill:#CC2952;stroke:#263238;stroke-linecap:round;stroke-linejoin:round;stroke-width:0.75px"></path><polygon points="417.71 212.14 410.94 212.14 408.7 213.48 408.7 216.65 410.94 218.89 417.71 218.89 419.95 216.65 419.95 213.48 417.71 212.14" style="fill:#CC2952"></polygon><g style="clip-path:url(#freepik--clip-path-6--inject-338)"><polygon points="414.18 220.18 410.68 220.18 416.96 207.43 420.46 207.43 414.18 220.18" style="fill:#fff;opacity:0.5"></polygon></g><polygon points="417.71 212.14 410.94 212.14 408.7 213.48 408.7 216.65 410.94 218.89 417.71 218.89 419.95 216.65 419.95 213.48 417.71 212.14" style="fill:none;stroke:#263238;stroke-linecap:round;stroke-linejoin:round;stroke-width:0.75px"></polygon><polygon points="431.05 212.14 424.28 212.14 422.04 213.48 422.04 216.65 424.28 218.89 431.05 218.89 433.29 216.65 433.29 213.48 431.05 212.14" style="fill:#CC2952"></polygon><g style="clip-path:url(#freepik--clip-path-7--inject-338)"><polygon points="429.37 220.18 425.87 220.18 432.15 207.43 435.65 207.43 429.37 220.18" style="fill:#fff;opacity:0.5"></polygon></g><polygon points="431.05 212.14 424.28 212.14 422.04 213.48 422.04 216.65 424.28 218.89 431.05 218.89 433.29 216.65 433.29 213.48 431.05 212.14" style="fill:none;stroke:#263238;stroke-linecap:round;stroke-linejoin:round;stroke-width:0.75px"></polygon><line x1="419.95" y1="214.43" x2="422.04" y2="214.43" style="fill:#CC2952;stroke:#263238;stroke-linecap:round;stroke-linejoin:round;stroke-width:0.75px"></line><path d="M434,211.35H407.74a.76.76,0,0,1-.54-1.3l3.21-3.22h20.91l3.21,3.22A.76.76,0,0,1,434,211.35Z" style="fill:#fff"></path><g style="clip-path:url(#freepik--clip-path-8--inject-338)"><path d="M422.91,211.35c0,2-2.19,3.6-4.9,3.6s-4.9-1.61-4.9-3.6,2.2-3.6,4.9-3.6S422.91,209.36,422.91,211.35Z" style="fill:#CC2952"></path></g><path d="M434,211.35H407.74a.76.76,0,0,1-.54-1.3l3.21-3.22h20.91l3.21,3.22A.76.76,0,0,1,434,211.35Z" style="fill:none;stroke:#263238;stroke-linecap:round;stroke-linejoin:round;stroke-width:0.75px"></path><path d="M426.82,197.84H414.91a3.3,3.3,0,0,0-3.23,2.65l-1.27,6.34h20.91l-1.27-6.34A3.3,3.3,0,0,0,426.82,197.84Z" style="fill:#fff"></path><g style="clip-path:url(#freepik--clip-path-9--inject-338)"><ellipse cx="414.17" cy="199.63" rx="4.9" ry="3.6" style="fill:#CC2952"></ellipse><ellipse cx="431.33" cy="202.33" rx="4.9" ry="3.6" style="fill:#CC2952"></ellipse></g><path d="M426.82,197.84H414.91a3.3,3.3,0,0,0-3.23,2.65l-1.27,6.34h20.91l-1.27-6.34A3.3,3.3,0,0,0,426.82,197.84Z" style="fill:none;stroke:#263238;stroke-linecap:round;stroke-linejoin:round;stroke-width:0.75px"></path><rect x="387.57" y="229.65" width="1.93" height="16.76" style="fill:#858585;stroke:#263238;stroke-linecap:round;stroke-linejoin:round;stroke-width:0.75px"></rect><ellipse cx="388.53" cy="217.04" rx="10.79" ry="14.13" style="fill:#fff;stroke:#263238;stroke-linecap:round;stroke-linejoin:round;stroke-width:0.75px"></ellipse><path d="M393.86,244.35c-1.16-1.16,1-5.27,0-6.55-1.67-2.07-9-2.07-10.65,0-1,1.28,1.16,5.39,0,6.55-1,1-4.41-.86-5.47,0-.88.72-1.8,4.54-1.8,4.54h25.19s-.92-3.82-1.8-4.54C398.26,243.49,394.83,245.32,393.86,244.35Z" style="fill:#CC2952;stroke:#263238;stroke-linecap:round;stroke-linejoin:round;stroke-width:0.75px"></path><path d="M387.57,214.63a4.92,4.92,0,0,1-9.83,0c0-2.71,2.2-3.12,4.91-3.12S387.57,211.92,387.57,214.63Z" style="fill:#CC2952;stroke:#263238;stroke-linecap:round;stroke-linejoin:round;stroke-width:0.75px"></path><path d="M386.58,214.81a3.93,3.93,0,0,1-7.86,0c0-2.17,1.76-2.49,3.93-2.49S386.58,212.64,386.58,214.81Z" style="fill:#263238"></path><path d="M399.32,214.63a4.91,4.91,0,1,1-9.82,0c0-2.71,2.2-3.12,4.91-3.12S399.32,211.92,399.32,214.63Z" style="fill:#CC2952;stroke:#263238;stroke-linecap:round;stroke-linejoin:round;stroke-width:0.75px"></path><path d="M398.34,214.81a3.93,3.93,0,0,1-7.86,0c0-2.17,1.76-2.49,3.93-2.49S398.34,212.64,398.34,214.81Z" style="fill:#263238"></path><line x1="387.13" y1="212.93" x2="389.92" y2="212.93" style="fill:#fff;stroke:#263238;stroke-linecap:round;stroke-linejoin:round;stroke-width:0.75px"></line><path d="M394.27,245.32a1,1,0,0,1,.26-1.93.91.91,0,0,1,.83,1.09A.92.92,0,0,1,394.27,245.32Z" style="fill:#fff;stroke:#263238;stroke-linecap:round;stroke-linejoin:round;stroke-width:0.5px"></path><path d="M393.26,247.84a1,1,0,0,1,.8-1.77.92.92,0,0,1,.49,1.29A.91.91,0,0,1,393.26,247.84Z" style="fill:#fff;stroke:#263238;stroke-linecap:round;stroke-linejoin:round;stroke-width:0.5px"></path><path d="M391.45,249.87a1,1,0,0,1,1.37-1.37,1,1,0,1,1-1.37,1.37Z" style="fill:#fff;stroke:#263238;stroke-linecap:round;stroke-linejoin:round;stroke-width:0.5px"></path><path d="M388.93,250.83a1,1,0,0,1,1.85-.55.9.9,0,0,1-.63,1.26A.89.89,0,0,1,388.93,250.83Z" style="fill:#fff;stroke:#263238;stroke-linecap:round;stroke-linejoin:round;stroke-width:0.5px"></path><path d="M386.29,250.28a1,1,0,0,1,1.85.55,1,1,0,1,1-1.85-.55Z" style="fill:#fff;stroke:#263238;stroke-linecap:round;stroke-linejoin:round;stroke-width:0.5px"></path><path d="M384.25,248.5a1,1,0,0,1,1.29.08,1,1,0,0,1,.08,1.29,1,1,0,1,1-1.37-1.37Z" style="fill:#fff;stroke:#263238;stroke-linecap:round;stroke-linejoin:round;stroke-width:0.5px"></path><path d="M383,246.07a1,1,0,0,1,.8,1.77,1,1,0,1,1-.8-1.77Z" style="fill:#fff;stroke:#263238;stroke-linecap:round;stroke-linejoin:round;stroke-width:0.5px"></path><path d="M382.54,243.39a1,1,0,0,1,.25,1.93.93.93,0,0,1-1.09-.84A.92.92,0,0,1,382.54,243.39Z" style="fill:#fff;stroke:#263238;stroke-linecap:round;stroke-linejoin:round;stroke-width:0.5px"></path><path d="M389.18,341.3a38.16,38.16,0,0,1,.85-4.17h-8.79s-.92,3-1.9,2.74-.23-2.74-.23-2.74H376l1,4s-5.11,2.88-6.65,3.5c-.87.35-2.94.19-3.65.79s-1.11,2.34-1.28,3.18a16,16,0,0,0,0,2.23H390A83.37,83.37,0,0,1,389.18,341.3Z" style="fill:#fff;stroke:#263238;stroke-linecap:round;stroke-linejoin:round;stroke-width:0.75px"></path><path d="M378.92,343s-1.25-2-3.21-1.48" style="fill:none;stroke:#263238;stroke-linecap:round;stroke-linejoin:round;stroke-width:0.75px"></path><path d="M376.94,344.25a3.21,3.21,0,0,0-2.87-1.88" style="fill:none;stroke:#263238;stroke-linecap:round;stroke-linejoin:round;stroke-width:0.75px"></path><path d="M372.41,343.31s1.87.53,1.87,2.11" style="fill:none;stroke:#263238;stroke-linecap:round;stroke-linejoin:round;stroke-width:0.75px"></path><path d="M376.39,341.28s-1.57-4.5-2.91-3.33,2.32,3.69,2.32,3.69-3.54-1.41-5,.16" style="fill:none;stroke:#263238;stroke-linecap:round;stroke-linejoin:round;stroke-width:0.75px"></path><path d="M388.46,350.8c-.27-2.34-.8-7.19-.85-9a13.46,13.46,0,0,1,1.05-4.67H390a38.16,38.16,0,0,0-.85,4.17,83.37,83.37,0,0,0,.85,9.5Z" style="fill:#fff;stroke:#263238;stroke-linecap:round;stroke-linejoin:round;stroke-width:0.75px"></path><path d="M382.08,342.66a1.91,1.91,0,1,0,1.91-1.91A1.91,1.91,0,0,0,382.08,342.66Z" style="fill:#fff;stroke:#263238;stroke-linecap:round;stroke-linejoin:round;stroke-width:0.75px"></path><path d="M365.42,350.8H390s-.1-.71-.23-1.75H365.38C365.36,349.76,365.42,350.8,365.42,350.8Z" style="fill:#CC2952;stroke:#263238;stroke-linecap:round;stroke-linejoin:round;stroke-width:0.75px"></path><path d="M402.09,341.3a38.16,38.16,0,0,1,.85-4.17h-8.79s-.91,3-1.9,2.74-.23-2.74-.23-2.74H389l1,4s-5.11,2.88-6.65,3.5c-.86.35-2.94.19-3.65.79s-1.11,2.34-1.28,3.18a16,16,0,0,0,0,2.23h24.61A85.79,85.79,0,0,1,402.09,341.3Z" style="fill:#fff;stroke:#263238;stroke-linecap:round;stroke-linejoin:round;stroke-width:0.75px"></path><path d="M391.83,343s-1.25-2-3.2-1.48" style="fill:none;stroke:#263238;stroke-linecap:round;stroke-linejoin:round;stroke-width:0.75px"></path><path d="M389.85,344.25a3.21,3.21,0,0,0-2.87-1.88" style="fill:none;stroke:#263238;stroke-linecap:round;stroke-linejoin:round;stroke-width:0.75px"></path><path d="M385.32,343.31s1.87.53,1.87,2.11" style="fill:none;stroke:#263238;stroke-linecap:round;stroke-linejoin:round;stroke-width:0.75px"></path><path d="M389.3,341.28s-1.56-4.5-2.91-3.33,2.32,3.69,2.32,3.69-3.54-1.41-5,.16" style="fill:none;stroke:#263238;stroke-linecap:round;stroke-linejoin:round;stroke-width:0.75px"></path><path d="M401.37,350.8c-.26-2.34-.8-7.19-.85-9a13.46,13.46,0,0,1,1.05-4.67h1.37a38.16,38.16,0,0,0-.85,4.17,85.79,85.79,0,0,0,.85,9.5Z" style="fill:#fff;stroke:#263238;stroke-linecap:round;stroke-linejoin:round;stroke-width:0.75px"></path><path d="M395,342.66a1.91,1.91,0,1,0,1.91-1.91A1.91,1.91,0,0,0,395,342.66Z" style="fill:#fff;stroke:#263238;stroke-linecap:round;stroke-linejoin:round;stroke-width:0.75px"></path><path d="M378.33,350.8h24.61l-.22-1.75H378.29C378.27,349.76,378.33,350.8,378.33,350.8Z" style="fill:#CC2952;stroke:#263238;stroke-linecap:round;stroke-linejoin:round;stroke-width:0.75px"></path><path d="M419.42,341.11c.06-1.06.86-12.17.86-12.17h-14l.95,12s-5.11,2.88-6.64,3.5c-.87.35-3,.19-3.66.8s-1.11,2.34-1.27,3.18a14.46,14.46,0,0,0,0,2.22H410l2.57-1.57v1.57h7.73A85,85,0,0,1,419.42,341.11Z" style="fill:#CC2952;stroke:#263238;stroke-linecap:round;stroke-linejoin:round;stroke-width:0.75px"></path><path d="M395.67,350.61H410l2.57-1.57v1.57h7.73s-.12-.87-.28-2.11H395.65A18.57,18.57,0,0,0,395.67,350.61Z" style="fill:#fff;stroke:#263238;stroke-linecap:round;stroke-linejoin:round;stroke-width:0.75px"></path><polygon points="410.34 328.94 409.36 328.94 408.61 328.94 409.51 341.61 410.34 341.61 410.34 328.94" style="fill:#263238;stroke:#263238;stroke-linecap:round;stroke-linejoin:round;stroke-width:0.75px"></polygon><path d="M433,341.11c.06-1.06.85-12.17.85-12.17h-14l1,12s-5.11,2.88-6.65,3.5c-.87.35-2.94.19-3.66.8s-1.11,2.34-1.27,3.18a15.9,15.9,0,0,0,0,2.22h14.32l2.57-1.57v1.57h7.72A83.13,83.13,0,0,1,433,341.11Z" style="fill:#CC2952;stroke:#263238;stroke-linecap:round;stroke-linejoin:round;stroke-width:0.75px"></path><path d="M409.22,350.61h14.32l2.57-1.57v1.57h7.72s-.12-.87-.27-2.11H409.21A17,17,0,0,0,409.22,350.61Z" style="fill:#fff;stroke:#263238;stroke-linecap:round;stroke-linejoin:round;stroke-width:0.75px"></path><polygon points="423.9 328.94 422.91 328.94 422.16 328.94 423.06 341.61 423.9 341.61 423.9 328.94" style="fill:#263238;stroke:#263238;stroke-linecap:round;stroke-linejoin:round;stroke-width:0.75px"></polygon><path d="M393.63,307.31c.06-1.06-.15-5.17-.15-5.17h-12l0,5s-5.11,2.88-6.65,3.5c-.87.35-2.94.19-3.65.79s-1.11,2.34-1.28,3.18a16,16,0,0,0,0,2.23h14.32l2.57-1.57v1.57h7.72A83.37,83.37,0,0,1,393.63,307.31Z" style="fill:#858585;stroke:#263238;stroke-linecap:round;stroke-linejoin:round;stroke-width:0.75px"></path><path d="M369.87,316.81h14.32l2.57-1.57v1.57h7.72s-.12-.88-.27-2.11H369.86A17,17,0,0,0,369.87,316.81Z" style="fill:#263238;stroke:#263238;stroke-linecap:round;stroke-linejoin:round;stroke-width:0.75px"></path><path d="M405,307.31c.06-1.06-.15-5.17-.15-5.17h-12l0,5s-5.11,2.88-6.65,3.5c-.87.35-2.94.19-3.66.79s-1.11,2.34-1.27,3.18a16,16,0,0,0,0,2.23h14.32l2.57-1.57v1.57h7.72A83.37,83.37,0,0,1,405,307.31Z" style="fill:#858585;stroke:#263238;stroke-linecap:round;stroke-linejoin:round;stroke-width:0.75px"></path><path d="M381.27,316.81h14.32l2.57-1.57v1.57h7.72s-.12-.88-.27-2.11H381.26A17,17,0,0,0,381.27,316.81Z" style="fill:#263238;stroke:#263238;stroke-linecap:round;stroke-linejoin:round;stroke-width:0.75px"></path><path d="M384.29,376.31c.06-1.06,1.86-13.17,1.86-13.17h-10l-.05,13s-5.11,2.88-6.64,3.5c-.87.35-3,.19-3.66.8a3.83,3.83,0,0,0-1.27,2.18,4,4,0,0,0,0,1.22,39.5,39.5,0,0,0,3.9,1c2.58.33,10.41,0,10.41,0l2.57-4.57,1,4.57h1.73S384.16,378.7,384.29,376.31Z" style="fill:#858585;stroke:#263238;stroke-linecap:round;stroke-linejoin:round;stroke-width:0.75px"></path><path d="M396.83,376.31c.06-1.06,1.85-13.17,1.85-13.17h-10l0,13s-5.11,2.88-6.65,3.5c-.87.35-2.94.19-3.65.8a3.85,3.85,0,0,0-1.28,2.18,4.44,4.44,0,0,0,0,1.22,39.89,39.89,0,0,0,3.91,1c2.58.33,10.41,0,10.41,0l2.57-4.57,1,4.57h1.72S396.69,378.7,396.83,376.31Z" style="fill:#858585;stroke:#263238;stroke-linecap:round;stroke-linejoin:round;stroke-width:0.75px"></path><path d="M422.47,375.46a37.9,37.9,0,0,1,.86-4.18h-5.8a4.76,4.76,0,0,0-3.94,2.11c-.29.43-.62.72-.95.64a.61.61,0,0,1-.4-.52,2.75,2.75,0,0,0-2.63-2.23h-.27l1,4s-5.1,2.87-6.64,3.5c-.87.35-2.95.19-3.66.79s-1.11,2.34-1.27,3.18v0a1.87,1.87,0,0,0,1.84,2.21h20.56a2,2,0,0,0,1.94-2.19A57.74,57.74,0,0,1,422.47,375.46Z" style="fill:#CC2952;stroke:#263238;stroke-linecap:round;stroke-linejoin:round;stroke-width:0.75px"></path><path d="M398.71,382.75v0a11.64,11.64,0,0,1,.29-1.18,10.08,10.08,0,0,0,5.19,1.6h14.5a4.57,4.57,0,0,0,4.1-2.51c.08.76.17,1.49.25,2.13a2,2,0,0,1-1.94,2.19H400.65A1.94,1.94,0,0,1,398.71,382.75Z" style="fill:#858585;stroke:#263238;stroke-linecap:round;stroke-linejoin:round;stroke-width:0.75px"></path><path d="M432.32,375.46a38.46,38.46,0,0,1,.85-4.18h-5.79a4.78,4.78,0,0,0-3.95,2.11c-.29.43-.61.72-.95.64a.62.62,0,0,1-.4-.52,2.74,2.74,0,0,0-2.62-2.23h-.28l.95,4s-5.1,2.87-6.64,3.5c-.87.35-2.94.19-3.66.79s-1.11,2.34-1.27,3.18v0A1.87,1.87,0,0,0,410.4,385H431a2,2,0,0,0,1.94-2.19A57.53,57.53,0,0,1,432.32,375.46Z" style="fill:#CC2952;stroke:#263238;stroke-linecap:round;stroke-linejoin:round;stroke-width:0.75px"></path><path d="M408.56,382.75v0c.06-.3.16-.73.29-1.18a10.08,10.08,0,0,0,5.19,1.6h14.5a4.57,4.57,0,0,0,4.1-2.51c.09.76.17,1.49.25,2.13A2,2,0,0,1,431,385H410.49A1.93,1.93,0,0,1,408.56,382.75Z" style="fill:#858585;stroke:#263238;stroke-linecap:round;stroke-linejoin:round;stroke-width:0.75px"></path><path d="M393.81,282.8h-17a2.12,2.12,0,0,1-2.11-2.32l1.42-14.87h18.36l1.43,14.87A2.12,2.12,0,0,1,393.81,282.8Z" style="fill:#CC2952"></path><g style="clip-path:url(#freepik--clip-path-10--inject-338)"><path d="M393.81,282.8h-17a2.12,2.12,0,0,1-2.11-2.32l1.42-14.87h18.36l1.43,14.87A2.12,2.12,0,0,1,393.81,282.8Z" style="opacity:0.4"></path></g><path d="M393.81,282.8h-17a2.12,2.12,0,0,1-2.11-2.32l1.42-14.87h18.36l1.43,14.87A2.12,2.12,0,0,1,393.81,282.8Z" style="fill:none;stroke:#263238;stroke-linecap:round;stroke-linejoin:round;stroke-width:0.75px"></path><path d="M376.61,265.61l.49,5.17a2.92,2.92,0,0,0,2.91,2.64h10.61a2.92,2.92,0,0,0,2.91-2.64l.49-5.17Z" style="fill:#CC2952;stroke:#263238;stroke-linecap:round;stroke-linejoin:round;stroke-width:0.75px"></path><path d="M391.62,265.4a.83.83,0,0,1-.83-.82,5.48,5.48,0,0,0-11,0,.82.82,0,1,1-1.64,0,7.13,7.13,0,1,1,14.25,0A.82.82,0,0,1,391.62,265.4Z" style="fill:#CC2952;stroke:#263238;stroke-linecap:round;stroke-linejoin:round;stroke-width:0.75px"></path><path d="M385.31,276.31h0a1,1,0,0,1-1-1v-3.71a1,1,0,0,1,1-1h0a1,1,0,0,1,1,1v3.71A1,1,0,0,1,385.31,276.31Z" style="fill:#fff;stroke:#263238;stroke-linecap:round;stroke-linejoin:round;stroke-width:0.75px"></path><path d="M427.51,282.8H403.89a2.12,2.12,0,0,1-2.1-2.32l1.42-14.87h25l1.42,14.87A2.12,2.12,0,0,1,427.51,282.8Z" style="fill:#CC2952;stroke:#263238;stroke-linecap:round;stroke-linejoin:round;stroke-width:0.75px"></path><path d="M403.68,265.61l.5,5.17a2.91,2.91,0,0,0,2.9,2.64h17.25a2.91,2.91,0,0,0,2.9-2.64l.5-5.17Z" style="fill:#CC2952"></path><g style="clip-path:url(#freepik--clip-path-11--inject-338)"><path d="M403.68,265.61l.5,5.17a2.91,2.91,0,0,0,2.9,2.64h17.25a2.91,2.91,0,0,0,2.9-2.64l.5-5.17Z" style="fill:#fff;opacity:0.5"></path></g><path d="M403.68,265.61l.5,5.17a2.91,2.91,0,0,0,2.9,2.64h17.25a2.91,2.91,0,0,0,2.9-2.64l.5-5.17Z" style="fill:none;stroke:#263238;stroke-linecap:round;stroke-linejoin:round;stroke-width:0.75px"></path><path d="M410.2,277.09h0a1.44,1.44,0,0,1-1.43-1.44v-3.56h2.87v3.56A1.44,1.44,0,0,1,410.2,277.09Z" style="fill:#CC2952;stroke:#263238;stroke-linecap:round;stroke-linejoin:round;stroke-width:0.75px"></path><path d="M421.2,277.09h0a1.44,1.44,0,0,1-1.43-1.44v-3.56h2.87v3.56A1.44,1.44,0,0,1,421.2,277.09Z" style="fill:#CC2952;stroke:#263238;stroke-linecap:round;stroke-linejoin:round;stroke-width:0.75px"></path><path d="M419.52,266.61a1,1,0,0,1-1-1v-3.15h-5.63v3.15a1,1,0,0,1-2,0v-4.15a1,1,0,0,1,1-1h7.63a1,1,0,0,1,1,1v4.15A1,1,0,0,1,419.52,266.61Z" style="fill:#CC2952"></path><g style="clip-path:url(#freepik--clip-path-12--inject-338)"><g style="opacity:0.5"><path d="M419.52,266.61a1,1,0,0,1-1-1v-3.15h-5.63v3.15a1,1,0,0,1-2,0v-4.15a1,1,0,0,1,1-1h7.63a1,1,0,0,1,1,1v4.15A1,1,0,0,1,419.52,266.61Z"></path></g></g><path d="M419.52,266.61a1,1,0,0,1-1-1v-3.15h-5.63v3.15a1,1,0,0,1-2,0v-4.15a1,1,0,0,1,1-1h7.63a1,1,0,0,1,1,1v4.15A1,1,0,0,1,419.52,266.61Z" style="fill:none;stroke:#263238;stroke-linecap:round;stroke-linejoin:round;stroke-width:0.75px"></path><path d="M420.23,307.48a37.6,37.6,0,0,1,.86-4.17H415.3a4.76,4.76,0,0,0-3.95,2.1,99.11,99.11,0,0,1-9.94,5.37c-.87.35-2.94.19-3.66.79s-1.11,2.34-1.27,3.18v0a1.86,1.86,0,0,0,1.83,2.21h20.56a2,2,0,0,0,1.94-2.19A59.66,59.66,0,0,1,420.23,307.48Z" style="fill:#CC2952"></path><g style="clip-path:url(#freepik--clip-path-13--inject-338)"><path d="M420.23,307.48a37.6,37.6,0,0,1,.86-4.17H415.3a4.76,4.76,0,0,0-3.95,2.1,99.11,99.11,0,0,1-9.94,5.37c-.87.35-2.94.19-3.66.79s-1.11,2.34-1.27,3.18v0a1.86,1.86,0,0,0,1.83,2.21h20.56a2,2,0,0,0,1.94-2.19A59.66,59.66,0,0,1,420.23,307.48Z" style="fill:#fff;opacity:0.5"></path></g><path d="M420.23,307.48a37.6,37.6,0,0,1,.86-4.17H415.3a4.76,4.76,0,0,0-3.95,2.1,99.11,99.11,0,0,1-9.94,5.37c-.87.35-2.94.19-3.66.79s-1.11,2.34-1.27,3.18v0a1.86,1.86,0,0,0,1.83,2.21h20.56a2,2,0,0,0,1.94-2.19A59.66,59.66,0,0,1,420.23,307.48Z" style="fill:none;stroke:#263238;stroke-linecap:round;stroke-linejoin:round;stroke-width:0.75px"></path><path d="M420.81,314.79c-.14-1.15-.31-2.62-.43-4-2.1.63-3.21,3.2-3.21,3.2H404.83a7.39,7.39,0,0,0-3.62-3.17c-.95.27-2.79.17-3.46.73s-1.11,2.34-1.27,3.18v0a1.86,1.86,0,0,0,1.83,2.21h20.56A2,2,0,0,0,420.81,314.79Z" style="fill:#858585;stroke:#263238;stroke-linecap:round;stroke-linejoin:round;stroke-width:0.75px"></path><path d="M432.15,307.48a38.16,38.16,0,0,1,.85-4.17h-5.79a4.78,4.78,0,0,0-3.95,2.1c-.28.43-8.4,4.75-9.94,5.37-.86.35-2.94.19-3.65.79s-1.11,2.34-1.27,3.18v0a1.87,1.87,0,0,0,1.84,2.21h20.55a2,2,0,0,0,1.94-2.19A57.53,57.53,0,0,1,432.15,307.48Z" style="fill:#CC2952"></path><g style="clip-path:url(#freepik--clip-path-14--inject-338)"><path d="M432.15,307.48a38.16,38.16,0,0,1,.85-4.17h-5.79a4.78,4.78,0,0,0-3.95,2.1c-.28.43-8.4,4.75-9.94,5.37-.86.35-2.94.19-3.65.79s-1.11,2.34-1.27,3.18v0a1.87,1.87,0,0,0,1.84,2.21h20.55a2,2,0,0,0,1.94-2.19A57.53,57.53,0,0,1,432.15,307.48Z" style="fill:#fff;opacity:0.5"></path></g><path d="M432.15,307.48a38.16,38.16,0,0,1,.85-4.17h-5.79a4.78,4.78,0,0,0-3.95,2.1c-.28.43-8.4,4.75-9.94,5.37-.86.35-2.94.19-3.65.79s-1.11,2.34-1.27,3.18v0a1.87,1.87,0,0,0,1.84,2.21h20.55a2,2,0,0,0,1.94-2.19A57.53,57.53,0,0,1,432.15,307.48Z" style="fill:none;stroke:#263238;stroke-linecap:round;stroke-linejoin:round;stroke-width:0.75px"></path><path d="M432.72,314.79c-.14-1.15-.3-2.62-.42-4-2.11.63-3.22,3.2-3.22,3.2H416.75a7.41,7.41,0,0,0-3.63-3.17c-.94.27-2.79.17-3.45.73s-1.11,2.34-1.27,3.18v0a1.87,1.87,0,0,0,1.84,2.21h20.55A2,2,0,0,0,432.72,314.79Z" style="fill:#858585;stroke:#263238;stroke-linecap:round;stroke-linejoin:round;stroke-width:0.75px"></path><path d="M407.27,246.41h-2.14V175.94h-1.91v70.47h-2.4a2.47,2.47,0,0,0-2.48,2.47h11.41A2.47,2.47,0,0,0,407.27,246.41Z" style="fill:#fff;stroke:#263238;stroke-linecap:round;stroke-linejoin:round;stroke-width:0.75px"></path><rect x="373.04" y="167.74" width="62.27" height="20.82" style="fill:#CC2952"></rect><g style="clip-path:url(#freepik--clip-path-15--inject-338)"><rect x="373.04" y="167.74" width="62.27" height="20.82" style="fill:#fff;opacity:0.7000000000000001"></rect></g><rect x="373.04" y="167.74" width="62.27" height="20.82" style="fill:none;stroke:#263238;stroke-linecap:round;stroke-linejoin:round;stroke-width:0.75px"></rect><path d="M377.81,174.23h1.69l.76,5.41h0l.75-5.41h1.7v7.56h-1.12v-5.72h0l-.86,5.72h-1l-.87-5.72h0v5.72h-1Z"></path><path d="M383.62,174.23h1.18v7.56h-1.18Z"></path><path d="M385.69,174.23h1.49l1.15,4.53h0v-4.53h1.05v7.56h-1.22l-1.42-5.52h0v5.52h-1.06Z"></path><path d="M391.23,175.31H390v-1.08h3.67v1.08h-1.24v6.48h-1.19Z"></path><path d="M395.89,180V176a1.75,1.75,0,1,1,3.49,0v.8h-1.12v-.87c0-.5-.24-.71-.59-.71s-.6.21-.6.71v4.22c0,.49.24.69.6.69s.59-.2.59-.69V179h1.12V180a1.75,1.75,0,1,1-3.49,0Z"></path><path d="M400,180v-4a1.81,1.81,0,1,1,3.61,0v4a1.81,1.81,0,1,1-3.61,0Zm2.42.07V176c0-.54-.24-.75-.61-.75s-.62.21-.62.75v4.12c0,.54.24.75.62.75S402.45,180.61,402.45,180.07Z"></path><path d="M404.44,174.23h1.49l1.15,4.53h0v-4.53h1.05v7.56h-1.22l-1.42-5.52h0v5.52h-1.06Z"></path><path d="M409.05,174.23h1.81c1.19,0,1.77.66,1.77,1.87v3.82c0,1.21-.58,1.87-1.77,1.87h-1.81Zm1.79,6.48c.38,0,.61-.19.61-.74v-3.92c0-.54-.23-.74-.61-.74h-.6v5.4Z"></path><path d="M413.44,174.23h1.18v7.56h-1.18Z"></path><path d="M416.44,175.31H415.2v-1.08h3.67v1.08h-1.24v6.48h-1.19Z"></path><path d="M419.44,174.23h1.19v7.56h-1.19Z"></path><path d="M421.43,180v-4a1.8,1.8,0,1,1,3.6,0v4a1.8,1.8,0,1,1-3.6,0Zm2.42.07V176c0-.54-.24-.75-.62-.75s-.62.21-.62.75v4.12c0,.54.24.75.62.75S423.85,180.61,423.85,180.07Z"></path><path d="M425.83,174.23h1.49l1.16,4.53h0v-4.53h1.06v7.56h-1.22l-1.43-5.52h0v5.52h-1.06Z"></path></g><g id="freepik--Rack--inject-338"><path d="M273,402.85H256.88V207.25A19.87,19.87,0,0,0,237,187.4H93.73a19.88,19.88,0,0,0-19.85,19.85v195.6H57.76a6.63,6.63,0,0,0-6.63,6.63v4c0,1.1.9,1.26,2,1.26s2-.16,2-1.26v-4a2.63,2.63,0,0,1,2.63-2.63H94a2.62,2.62,0,0,1,2.62,2.63v4c0,1.1.9,1.26,2,1.26s2-.16,2-1.26v-4A6.63,6.63,0,0,0,94,402.85H77.88V207.25A15.87,15.87,0,0,1,93.73,191.4H237a15.87,15.87,0,0,1,15.85,15.85v195.6H236.76a6.63,6.63,0,0,0-6.63,6.63v4c0,1.1.9,1.26,2,1.26s2-.16,2-1.26v-4a2.63,2.63,0,0,1,2.63-2.63H273a2.62,2.62,0,0,1,2.62,2.63v4c0,1.1.9,1.26,2,1.26s2-.16,2-1.26v-4A6.63,6.63,0,0,0,273,402.85Z" style="fill:#CC2952;stroke:#263238;stroke-linecap:round;stroke-linejoin:round;stroke-width:0.75px"></path><path d="M194.6,202a22.25,22.25,0,0,1-9.94-2.34H179.1v15.5h31.16v-15.5h-5.71A22.29,22.29,0,0,1,194.6,202Z" style="fill:#CC2952"></path><g style="clip-path:url(#freepik--clip-path-16--inject-338)"><path d="M194.6,202a22.25,22.25,0,0,1-9.94-2.34H179.1v15.5h31.16v-15.5h-5.71A22.29,22.29,0,0,1,194.6,202Z" style="opacity:0.4"></path></g><path d="M194.6,202a22.25,22.25,0,0,1-9.94-2.34H179.1v15.5h31.16v-15.5h-5.71A22.29,22.29,0,0,1,194.6,202Z" style="fill:none;stroke:#263238;stroke-linecap:round;stroke-linejoin:round;stroke-width:0.75px"></path><path d="M175.05,209.27l18.61-13.17a1.77,1.77,0,0,1,2,0l18.62,13.17a1.77,1.77,0,0,1-1,3.22H176.07A1.77,1.77,0,0,1,175.05,209.27Z" style="fill:none;stroke:#263238;stroke-linecap:round;stroke-linejoin:round;stroke-width:0.75px"></path><path d="M191.61,187.4a3.63,3.63,0,1,1,3.07,5.55v2.83" style="fill:none;stroke:#263238;stroke-linecap:round;stroke-linejoin:round;stroke-width:0.75px"></path><path d="M235.59,270.87l-13-63.67a9.43,9.43,0,0,0-9.24-7.54h-9.43a9.5,9.5,0,0,1-18.57,0h-9.27a9.43,9.43,0,0,0-9.24,7.54l-13,63.67a2,2,0,0,0,1.63,2.42l6.71,1.25a2,2,0,0,0,2.39-1.61L172,235.36l1.15,25.22a4.81,4.81,0,0,0,4.8,4.58h32.39a4.81,4.81,0,0,0,4.8-4.51l1.71-28,8,40.28a2,2,0,0,0,2.38,1.61l6.71-1.25A2,2,0,0,0,235.59,270.87Z" style="fill:#263238;stroke:#263238;stroke-linecap:round;stroke-linejoin:round;stroke-width:0.75px"></path><path d="M222.56,207.2a9.46,9.46,0,0,0-5.72-6.85v32.3l8,40.28a2,2,0,0,0,2.38,1.61l6.71-1.25a2,2,0,0,0,1.63-2.42Z" style="fill:#CC2952;stroke:#263238;stroke-linecap:round;stroke-linejoin:round;stroke-width:0.75px"></path><path d="M166.81,207.2l-13,63.67a2,2,0,0,0,1.63,2.42l6.71,1.25a2,2,0,0,0,2.39-1.61L172,235.36V200.58A9.46,9.46,0,0,0,166.81,207.2Z" style="fill:#CC2952;stroke:#263238;stroke-linecap:round;stroke-linejoin:round;stroke-width:0.75px"></path><path d="M212,237.83H177a5.12,5.12,0,0,0-4.77,3.26l.37,8.14a5.12,5.12,0,0,0,4.7,3.1h34.42a5.15,5.15,0,0,0,4-2l.61-10.14A5.1,5.1,0,0,0,212,237.83Z" style="fill:#263238"></path><g style="clip-path:url(#freepik--clip-path-17--inject-338)"><path d="M212,237.83H177a5.12,5.12,0,0,0-4.77,3.26l.37,8.14a5.12,5.12,0,0,0,4.7,3.1h34.42a5.15,5.15,0,0,0,4-2l.61-10.14A5.1,5.1,0,0,0,212,237.83Z" style="fill:#fff;stroke:#263238;stroke-linecap:round;stroke-linejoin:round;stroke-width:0.75px;opacity:0.2"></path></g><path d="M212,237.83H177a5.12,5.12,0,0,0-4.77,3.26l.37,8.14a5.12,5.12,0,0,0,4.7,3.1h34.42a5.15,5.15,0,0,0,4-2l.61-10.14A5.1,5.1,0,0,0,212,237.83Z" style="fill:none;stroke:#263238;stroke-linecap:round;stroke-linejoin:round;stroke-width:0.75px"></path><path d="M192.78,207v58.18h3.81V206.94a9.33,9.33,0,0,1-2,.22A9.13,9.13,0,0,1,192.78,207Z" style="fill:#CC2952;stroke:#263238;stroke-linecap:round;stroke-linejoin:round;stroke-width:0.75px"></path><path d="M155.66,209.27l18.62-13.17a1.77,1.77,0,0,1,2,0l18.62,13.17a1.77,1.77,0,0,1-1,3.22H156.69A1.78,1.78,0,0,1,155.66,209.27Z" style="fill:none;stroke:#263238;stroke-linecap:round;stroke-linejoin:round;stroke-width:0.75px"></path><path d="M172.23,187.4A3.63,3.63,0,1,1,175.3,193v2.83" style="fill:none;stroke:#263238;stroke-linecap:round;stroke-linejoin:round;stroke-width:0.75px"></path><path d="M199.06,280.55s2.72,1.71,7.64-1l-4.24-66.06a12.65,12.65,0,0,0-12.62-11.83H160.22a12.64,12.64,0,0,0-12.61,11.83l-4.24,66.06a11.41,11.41,0,0,0,7.64,1l4-45.37,3,29.46-7,81s24.09,5.3,48.25,0l-6-81,2.35-22.55Z" style="fill:#CC2952"></path><g style="clip-path:url(#freepik--clip-path-18--inject-338)"><path d="M199.06,280.55s2.72,1.71,7.64-1l-4.24-66.06a12.65,12.65,0,0,0-12.62-11.83H160.22a12.64,12.64,0,0,0-12.61,11.83l-4.24,66.06a11.41,11.41,0,0,0,7.64,1l4-45.37,3,29.46-7,81s24.09,5.3,48.25,0l-6-81,2.35-22.55Z" style="opacity:0.2"></path></g><path d="M199.06,280.55s2.72,1.71,7.64-1l-4.24-66.06a12.65,12.65,0,0,0-12.62-11.83H160.22a12.64,12.64,0,0,0-12.61,11.83l-4.24,66.06a11.41,11.41,0,0,0,7.64,1l4-45.37,3,29.46-7,81s24.09,5.3,48.25,0l-6-81,2.35-22.55Z" style="fill:none;stroke:#263238;stroke-linecap:round;stroke-linejoin:round;stroke-width:0.75px"></path><path d="M185.71,200.8l-1.56-.15c-.87,4.95-4.37,11.63-8.57,11.63s-7.7-6.68-8.57-11.63l-1.56.15a2.48,2.48,0,0,0-2.16,3l2.76,11.36a2.47,2.47,0,0,0,3.74,1.49l5.79-3.74,5.8,3.74a2.46,2.46,0,0,0,3.73-1.49l2.76-11.36A2.46,2.46,0,0,0,185.71,200.8Z" style="fill:#CC2952;stroke:#263238;stroke-linecap:round;stroke-linejoin:round;stroke-width:0.75px"></path><path d="M156.33,261.13A1.23,1.23,0,0,1,158,260c2,.79,5.23,3.13,5.23,10.11v69.11L159,343.37s.82-65.93.73-71c0-2-.21-6.37-2.8-7.78a1.23,1.23,0,0,1-.64-1.08Z" style="fill:#CC2952;stroke:#263238;stroke-linecap:round;stroke-linejoin:round;stroke-width:0.75px"></path><path d="M160.8,259.74a.46.46,0,0,1,.26.5L159.23,272l-.94-1.75.31-10.82a.47.47,0,0,1,.67-.41Z" style="fill:#CC2952;stroke:#263238;stroke-linecap:round;stroke-linejoin:round;stroke-width:0.75px"></path><path d="M195.27,261.13a1.23,1.23,0,0,0-1.66-1.16c-2,.79-5.23,3.13-5.23,10.11v69.11l4.18,4.18s-.82-65.93-.74-71c0-2,.21-6.37,2.81-7.78a1.25,1.25,0,0,0,.64-1.08Z" style="fill:#CC2952;stroke:#263238;stroke-linecap:round;stroke-linejoin:round;stroke-width:0.75px"></path><path d="M190.79,259.74a.48.48,0,0,0-.26.5L192.37,272l.94-1.75L193,259.42a.47.47,0,0,0-.67-.41Z" style="fill:#CC2952;stroke:#263238;stroke-linecap:round;stroke-linejoin:round;stroke-width:0.75px"></path><line x1="175.58" y1="342.33" x2="175.58" y2="345.08" style="fill:#CC2952;stroke:#263238;stroke-linecap:round;stroke-linejoin:round;stroke-width:0.75px"></line><line x1="175.58" y1="276.58" x2="175.58" y2="338.95" style="fill:#CC2952;stroke:#263238;stroke-linecap:round;stroke-linejoin:round;stroke-width:0.75px"></line><line x1="175.58" y1="229.08" x2="175.58" y2="271.99" style="fill:#CC2952;stroke:#263238;stroke-linecap:round;stroke-linejoin:round;stroke-width:0.75px"></line><line x1="175.58" y1="215.27" x2="175.58" y2="226.08" style="fill:#CC2952;stroke:#263238;stroke-linecap:round;stroke-linejoin:round;stroke-width:0.75px"></line><path d="M173.74,219.33a1.09,1.09,0,1,1-1.09-1.09A1.08,1.08,0,0,1,173.74,219.33Z" style="fill:#CC2952;stroke:#263238;stroke-linecap:round;stroke-linejoin:round;stroke-width:0.75px"></path><circle cx="172.65" cy="233.04" r="1.08" style="fill:#CC2952;stroke:#263238;stroke-linecap:round;stroke-linejoin:round;stroke-width:0.75px"></circle><path d="M173.74,246.74a1.09,1.09,0,1,1-1.09-1.08A1.09,1.09,0,0,1,173.74,246.74Z" style="fill:#CC2952;stroke:#263238;stroke-linecap:round;stroke-linejoin:round;stroke-width:0.75px"></path><path d="M173.74,260.45a1.09,1.09,0,1,1-2.17,0,1.09,1.09,0,0,1,2.17,0Z" style="fill:#CC2952;stroke:#263238;stroke-linecap:round;stroke-linejoin:round;stroke-width:0.75px"></path><circle cx="172.65" cy="274.16" r="1.08" style="fill:#CC2952;stroke:#263238;stroke-linecap:round;stroke-linejoin:round;stroke-width:0.75px"></circle><path d="M173.74,287.87a1.09,1.09,0,1,1-1.09-1.08A1.08,1.08,0,0,1,173.74,287.87Z" style="fill:#CC2952;stroke:#263238;stroke-linecap:round;stroke-linejoin:round;stroke-width:0.75px"></path><path d="M173.74,301.58a1.09,1.09,0,1,1-1.09-1.09A1.08,1.08,0,0,1,173.74,301.58Z" style="fill:#CC2952;stroke:#263238;stroke-linecap:round;stroke-linejoin:round;stroke-width:0.75px"></path><circle cx="172.65" cy="315.29" r="1.08" style="fill:#CC2952;stroke:#263238;stroke-linecap:round;stroke-linejoin:round;stroke-width:0.75px"></circle><path d="M173.74,329a1.09,1.09,0,1,1-1.09-1.08A1.09,1.09,0,0,1,173.74,329Z" style="fill:#CC2952;stroke:#263238;stroke-linecap:round;stroke-linejoin:round;stroke-width:0.75px"></path><path d="M152,202a22.25,22.25,0,0,1-9.94-2.34h-5.56v15.5h31.16v-15.5h-5.71A22.29,22.29,0,0,1,152,202Z" style="fill:#263238"></path><g style="clip-path:url(#freepik--clip-path-19--inject-338)"><path d="M152,202a22.25,22.25,0,0,1-9.94-2.34h-5.56v15.5h31.16v-15.5h-5.71A22.29,22.29,0,0,1,152,202Z" style="opacity:0.5"></path></g><path d="M152,202a22.25,22.25,0,0,1-9.94-2.34h-5.56v15.5h31.16v-15.5h-5.71A22.29,22.29,0,0,1,152,202Z" style="fill:none;stroke:#263238;stroke-linecap:round;stroke-linejoin:round;stroke-width:0.75px"></path><path d="M132.41,209.27,151,196.1a1.77,1.77,0,0,1,2,0l18.62,13.17a1.77,1.77,0,0,1-1,3.22H133.44A1.78,1.78,0,0,1,132.41,209.27Z" style="fill:none;stroke:#263238;stroke-linecap:round;stroke-linejoin:round;stroke-width:0.75px"></path><path d="M149,187.4a3.63,3.63,0,1,1,3.07,5.55v2.83" style="fill:none;stroke:#263238;stroke-linecap:round;stroke-linejoin:round;stroke-width:0.75px"></path><path d="M172.5,260.65l1.71-28,8,40.28a2,2,0,0,0,2.38,1.61l6.71-1.25a2,2,0,0,0,1.63-2.42l-13-63.67a9.41,9.41,0,0,0-9.23-7.54h-9.43c-.92,4.29-9.29,13.5-9.29,13.5s-8.36-9.21-9.28-13.5h-9.27a9.43,9.43,0,0,0-9.24,7.54l-13,63.67a2,2,0,0,0,1.63,2.42l6.71,1.25a2,2,0,0,0,2.39-1.61l7.49-37.57,1.15,25.22A73.58,73.58,0,0,0,172.5,260.65Z" style="fill:#263238;stroke:#263238;stroke-linecap:round;stroke-linejoin:round;stroke-width:0.75px"></path><path d="M142,202.47a9.26,9.26,0,0,1-.54-1.58" style="fill:none;stroke:#7f7f7f;stroke-linecap:round;stroke-linejoin:round;stroke-width:0.75px"></path><path d="M153.37,214.72c-.8.93-1.32,1.5-1.32,1.5s-6.25-6.89-9.17-12.09" style="fill:none;stroke:#7f7f7f;stroke-linecap:round;stroke-linejoin:round;stroke-width:0.75px"></path><path d="M162.6,200.89c-.68,3.16-4.95,8.71-7.84,12.19" style="fill:none;stroke:#7f7f7f;stroke-linecap:round;stroke-linejoin:round;stroke-width:0.75px"></path><line x1="130.11" y1="222.96" x2="129.47" y2="231.04" style="fill:none;stroke:#7f7f7f;stroke-linecap:round;stroke-linejoin:round;stroke-width:0.75px"></line><line x1="130.47" y1="218.41" x2="130.3" y2="220.58" style="fill:none;stroke:#7f7f7f;stroke-linecap:round;stroke-linejoin:round;stroke-width:0.75px"></line><line x1="174.09" y1="228.68" x2="174.28" y2="231.04" style="fill:none;stroke:#7f7f7f;stroke-linecap:round;stroke-linejoin:round;stroke-width:0.75px"></line><line x1="173.28" y1="218.41" x2="173.84" y2="225.45" style="fill:none;stroke:#7f7f7f;stroke-linecap:round;stroke-linejoin:round;stroke-width:0.75px"></line><path d="M169,250.51a9.15,9.15,0,0,0,1.29-2.06" style="fill:none;stroke:#7f7f7f;stroke-linecap:round;stroke-linejoin:round;stroke-width:0.75px"></path><path d="M134.55,256.58s22,2.71,31.85-3.78" style="fill:none;stroke:#7f7f7f;stroke-linecap:round;stroke-linejoin:round;stroke-width:0.75px"></path><path d="M125.06,202a22.32,22.32,0,0,1-10-2.34h-5.55v15.5h31.16v-15.5H135A22.32,22.32,0,0,1,125.06,202Z" style="fill:#CC2952;stroke:#263238;stroke-linecap:round;stroke-linejoin:round;stroke-width:0.75px"></path><path d="M105.5,209.27l18.62-13.17a1.77,1.77,0,0,1,2,0l18.62,13.17a1.77,1.77,0,0,1-1,3.22H106.53A1.77,1.77,0,0,1,105.5,209.27Z" style="fill:none;stroke:#263238;stroke-linecap:round;stroke-linejoin:round;stroke-width:0.75px"></path><path d="M122.07,187.4a3.63,3.63,0,1,1,3.07,5.55v2.83" style="fill:none;stroke:#263238;stroke-linecap:round;stroke-linejoin:round;stroke-width:0.75px"></path><path d="M166.05,270.87,153,207.2a9.43,9.43,0,0,0-9.23-7.54h-9.43a9.5,9.5,0,0,1-18.57,0H106.5a9.43,9.43,0,0,0-9.23,7.54l-13,63.67a2,2,0,0,0,1.63,2.42l6.71,1.25A2,2,0,0,0,95,272.93l7.48-37.57,1.16,25.22a4.81,4.81,0,0,0,4.8,4.58h32.39a4.81,4.81,0,0,0,4.8-4.51l1.71-28,8,40.28a2,2,0,0,0,2.39,1.61l6.71-1.25A2,2,0,0,0,166.05,270.87Z" style="fill:#CC2952;stroke:#263238;stroke-linecap:round;stroke-linejoin:round;stroke-width:0.75px"></path><path d="M134.35,199.66a9.5,9.5,0,0,1-18.57,0h-2.21a11.7,11.7,0,0,0,23.14,0Z" style="fill:#CC2952"></path><g style="clip-path:url(#freepik--clip-path-20--inject-338)"><path d="M134.35,199.66a9.5,9.5,0,0,1-18.57,0h-2.21a11.7,11.7,0,0,0,23.14,0Z" style="opacity:0.4"></path></g><path d="M134.35,199.66a9.5,9.5,0,0,1-18.57,0h-2.21a11.7,11.7,0,0,0,23.14,0Z" style="fill:none;stroke:#263238;stroke-linecap:round;stroke-linejoin:round;stroke-width:0.75px"></path><line x1="103.56" y1="218.41" x2="102.56" y2="231.04" style="fill:none;stroke:#263238;stroke-linecap:round;stroke-linejoin:round;stroke-width:0.75px"></line><line x1="146.37" y1="218.41" x2="147.37" y2="231.04" style="fill:none;stroke:#263238;stroke-linecap:round;stroke-linejoin:round;stroke-width:0.75px"></line><path d="M211.35,209.27,230,196.1a1.79,1.79,0,0,1,2,0l18.61,13.17a1.77,1.77,0,0,1-1,3.22H212.37A1.77,1.77,0,0,1,211.35,209.27Z" style="fill:none;stroke:#263238;stroke-linecap:round;stroke-linejoin:round;stroke-width:0.75px"></path><path d="M227.92,187.4A3.62,3.62,0,1,1,231,193v2.83" style="fill:none;stroke:#263238;stroke-linecap:round;stroke-linejoin:round;stroke-width:0.75px"></path><path d="M253.38,332.48s-9.56-45-9.14-76.68c.07-5.61,1.76-19.91,2.49-25.87a7,7,0,0,0-1.22-4.89l-6.34-9.15-8.75,8.74-8.74-8.74-6.33,9.49a7,7,0,0,0-1.16,4.53c.5,5.8,1.69,20.26,1.65,25.88-.22,31.7-10.15,76.69-10.15,76.69S220.52,341.85,253.38,332.48Z" style="fill:#CC2952"></path><g style="clip-path:url(#freepik--clip-path-21--inject-338)"><path d="M253.38,332.48s-9.56-45-9.14-76.68c.07-5.61,1.76-19.91,2.49-25.87a7,7,0,0,0-1.22-4.89l-6.34-9.15-8.75,8.74-8.74-8.74-6.33,9.49a7,7,0,0,0-1.16,4.53c.5,5.8,1.69,20.26,1.65,25.88-.22,31.7-10.15,76.69-10.15,76.69S220.52,341.85,253.38,332.48Z" style="fill:#fff;opacity:0.5"></path></g><path d="M253.38,332.48s-9.56-45-9.14-76.68c.07-5.61,1.76-19.91,2.49-25.87a7,7,0,0,0-1.22-4.89l-6.34-9.15-8.75,8.74-8.74-8.74-6.33,9.49a7,7,0,0,0-1.16,4.53c.5,5.8,1.69,20.26,1.65,25.88-.22,31.7-10.15,76.69-10.15,76.69S220.52,341.85,253.38,332.48Z" style="fill:none;stroke:#263238;stroke-linecap:round;stroke-linejoin:round;stroke-width:0.75px"></path><path d="M221.68,215.89s-2-14.9,0-15.15S221.68,215.89,221.68,215.89Z" style="fill:none;stroke:#263238;stroke-linecap:round;stroke-linejoin:round;stroke-width:0.75px"></path><path d="M239.21,215.89s-2-14.9,0-15.15S239.21,215.89,239.21,215.89Z" style="fill:none;stroke:#263238;stroke-linecap:round;stroke-linejoin:round;stroke-width:0.75px"></path><path d="M239.17,276.26c-1.77,13-7.18,41.69-21,47.7" style="fill:none;stroke:#263238;stroke-linecap:round;stroke-linejoin:round;stroke-width:0.75px"></path><path d="M239.91,269.8s-.12,1.46-.41,3.91" style="fill:none;stroke:#263238;stroke-linecap:round;stroke-linejoin:round;stroke-width:0.75px"></path><path d="M240,324.42a3.36,3.36,0,0,0,.75,1.93" style="fill:none;stroke:#263238;stroke-linecap:round;stroke-linejoin:round;stroke-width:0.75px"></path><path d="M241.52,296.2s-2.12,17-1.76,25.55" style="fill:none;stroke:#263238;stroke-linecap:round;stroke-linejoin:round;stroke-width:0.75px"></path><path d="M230.07,258.46l-3.89,2.28a.55.55,0,0,1-.82-.57,12,12,0,0,0,.32-1.71,12.13,12.13,0,0,0-.32-1.7.55.55,0,0,1,.82-.58Z" style="fill:#CC2952;stroke:#263238;stroke-linecap:round;stroke-linejoin:round;stroke-width:0.75px"></path><path d="M229.16,258.46l3.89-2.28a.55.55,0,0,1,.82.58,12.13,12.13,0,0,0-.32,1.7,12,12,0,0,0,.32,1.71.55.55,0,0,1-.82.57Z" style="fill:#CC2952;stroke:#263238;stroke-linecap:round;stroke-linejoin:round;stroke-width:0.75px"></path><rect x="221.28" y="257.54" width="3.32" height="1.92" style="fill:#CC2952;stroke:#263238;stroke-linecap:round;stroke-linejoin:round;stroke-width:0.75px"></rect><rect x="234.86" y="257.54" width="3.7" height="1.92" style="fill:#CC2952;stroke:#263238;stroke-linecap:round;stroke-linejoin:round;stroke-width:0.75px"></rect><rect x="240.06" y="257.54" width="3.24" height="1.92" style="fill:#CC2952;stroke:#263238;stroke-linecap:round;stroke-linejoin:round;stroke-width:0.75px"></rect><rect x="216.77" y="257.54" width="3.02" height="1.92" style="fill:#CC2952;stroke:#263238;stroke-linecap:round;stroke-linejoin:round;stroke-width:0.75px"></rect><rect x="227.96" y="256.52" width="3.41" height="3.41" rx="0.94" style="fill:#CC2952;stroke:#263238;stroke-linecap:round;stroke-linejoin:round;stroke-width:0.75px"></rect><path d="M230.33,232.09c-1.07,4.11-3.62,11.24-9.05,14.57" style="fill:none;stroke:#263238;stroke-linecap:round;stroke-linejoin:round;stroke-width:0.75px"></path><path d="M231,229s-.07.5-.25,1.33" style="fill:none;stroke:#263238;stroke-linecap:round;stroke-linejoin:round;stroke-width:0.75px"></path><path d="M89.58,209.27l18.61-13.17a1.79,1.79,0,0,1,2,0l18.61,13.17a1.77,1.77,0,0,1-1,3.22H90.6A1.77,1.77,0,0,1,89.58,209.27Z" style="fill:none;stroke:#263238;stroke-linecap:round;stroke-linejoin:round;stroke-width:0.75px"></path><path d="M106.15,187.4a3.62,3.62,0,1,1,3.07,5.55v2.83" style="fill:none;stroke:#263238;stroke-linecap:round;stroke-linejoin:round;stroke-width:0.75px"></path><path d="M87.5,220c-.08,1.66,0,5,0,6.65.64,28.48,3.18,113.9,3.18,113.9h11.56L104,294.26V285l3.76-48.27a4.25,4.25,0,0,0,1.48-.49,4.17,4.17,0,0,0,1.47.49L114.45,285v9.25l1.74,46.26h11.56s2.54-85.42,3.18-113.9c0-1.66.09-5,0-6.65-.13-2.42-1-9.64-1-9.64H88.5S87.63,217.55,87.5,220Z" style="fill:#263238;stroke:#263238;stroke-linecap:round;stroke-linejoin:round;stroke-width:0.75px"></path><path d="M129.12,338.52l-.63,3.59h-13l-.53-3.62a1.14,1.14,0,0,1,1.12-1.3H128A1.13,1.13,0,0,1,129.12,338.52Z" style="fill:#CC2952;stroke:#263238;stroke-linecap:round;stroke-linejoin:round;stroke-width:0.75px"></path><path d="M103.54,338.62l-.62,3.49h-13l-.52-3.53a1.21,1.21,0,0,1,1.2-1.39h11.74A1.22,1.22,0,0,1,103.54,338.62Z" style="fill:#CC2952;stroke:#263238;stroke-linecap:round;stroke-linejoin:round;stroke-width:0.75px"></path><circle cx="108.25" cy="213.27" r="2.19" style="fill:#CC2952;stroke:#263238;stroke-linecap:round;stroke-linejoin:round;stroke-width:0.75px"></circle><line x1="127.38" y1="292.75" x2="126.59" y2="336.45" style="fill:none;stroke:#7f7f7f;stroke-linecap:round;stroke-linejoin:round;stroke-width:0.75px"></line><line x1="128.59" y1="225.83" x2="127.44" y2="289.33" style="fill:none;stroke:#7f7f7f;stroke-linecap:round;stroke-linejoin:round;stroke-width:0.75px"></line><path d="M124.84,212.83a32.14,32.14,0,0,0,2.4,10.38" style="fill:none;stroke:#7f7f7f;stroke-linecap:round;stroke-linejoin:round;stroke-width:0.75px"></path><line x1="90.98" y1="276.58" x2="92.09" y2="336.45" style="fill:none;stroke:#7f7f7f;stroke-linecap:round;stroke-linejoin:round;stroke-width:0.75px"></line><line x1="90.17" y1="232.73" x2="90.93" y2="273.74" style="fill:none;stroke:#7f7f7f;stroke-linecap:round;stroke-linejoin:round;stroke-width:0.75px"></line><path d="M93.84,212.83c0,9.5-3.75,15.25-3.75,15.25l0,1.75" style="fill:none;stroke:#7f7f7f;stroke-linecap:round;stroke-linejoin:round;stroke-width:0.75px"></path><path d="M108.82,232.73a8.08,8.08,0,0,0,2.92-6.22c.16-2.51,0-10.07,0-10.07" style="fill:none;stroke:#7f7f7f;stroke-linecap:round;stroke-linejoin:round;stroke-width:0.75px"></path><path d="M102,229c3.06,2.06,6.91,4.9,6.14,5.67-1.25,1.25-7.63-2.7-9.38-2" style="fill:none;stroke:#7f7f7f;stroke-linecap:round;stroke-linejoin:round;stroke-width:0.75px"></path><path d="M98.52,226.77s.68.41,1.67,1" style="fill:none;stroke:#7f7f7f;stroke-linecap:round;stroke-linejoin:round;stroke-width:0.75px"></path><path d="M114.23,234.77A10.18,10.18,0,0,1,112,235" style="fill:none;stroke:#7f7f7f;stroke-linecap:round;stroke-linejoin:round;stroke-width:0.75px"></path><path d="M124,229.45A25.6,25.6,0,0,1,117,234" style="fill:none;stroke:#7f7f7f;stroke-linecap:round;stroke-linejoin:round;stroke-width:0.75px"></path><path d="M165.57,184V166.34h-2.38V184h-2.84a3.43,3.43,0,0,0-3.43,3.43h14.92a3.43,3.43,0,0,0-3.43-3.43Z" style="fill:#fff;stroke:#263238;stroke-linecap:round;stroke-linejoin:round;stroke-width:0.75px"></path><polygon points="164.38 137.49 169.71 134.08 172.61 139.69 178.93 139.4 178.63 145.72 184.25 148.62 180.84 153.94 184.25 159.27 178.63 162.17 178.93 168.49 172.61 168.19 169.71 173.81 164.38 170.4 159.06 173.81 156.16 168.19 149.84 168.49 150.13 162.17 144.51 159.27 147.93 153.94 144.51 148.62 150.13 145.72 149.84 139.4 156.16 139.69 159.06 134.08 164.38 137.49" style="fill:#CC2952"></polygon><g style="clip-path:url(#freepik--clip-path-22--inject-338)"><polygon points="164.38 137.49 169.71 134.08 172.61 139.69 178.93 139.4 178.63 145.72 184.25 148.62 180.84 153.94 184.25 159.27 178.63 162.17 178.93 168.49 172.61 168.19 169.71 173.81 164.38 170.4 159.06 173.81 156.16 168.19 149.84 168.49 150.13 162.17 144.51 159.27 147.93 153.94 144.51 148.62 150.13 145.72 149.84 139.4 156.16 139.69 159.06 134.08 164.38 137.49" style="fill:#fff;opacity:0.7000000000000001"></polygon></g><polygon points="164.38 137.49 169.71 134.08 172.61 139.69 178.93 139.4 178.63 145.72 184.25 148.62 180.84 153.94 184.25 159.27 178.63 162.17 178.93 168.49 172.61 168.19 169.71 173.81 164.38 170.4 159.06 173.81 156.16 168.19 149.84 168.49 150.13 162.17 144.51 159.27 147.93 153.94 144.51 148.62 150.13 145.72 149.84 139.4 156.16 139.69 159.06 134.08 164.38 137.49" style="fill:none;stroke:#263238;stroke-linecap:round;stroke-linejoin:round;stroke-width:0.75px"></polygon><path d="M152.24,156.71v-.6h1.56v.72c0,.75.33,1,.86,1s.85-.27.85-1-.33-1.43-1.41-2.37c-1.38-1.22-1.83-2.08-1.83-3.28a2.3,2.3,0,0,1,2.46-2.62c1.61,0,2.41,1,2.41,2.65v.43h-1.57v-.54c0-.75-.3-1-.82-1s-.83.28-.83,1,.35,1.33,1.43,2.27c1.38,1.22,1.82,2.06,1.82,3.37,0,1.71-.87,2.68-2.5,2.68S152.24,158.39,152.24,156.71Z" style="fill:#263238"></path><path d="M159.35,148.68h2.24l1.71,10.53h-1.65l-.3-2.09v0h-1.88l-.3,2.06h-1.53Zm1.8,7-.73-5.2h0l-.72,5.2Z" style="fill:#263238"></path><path d="M164.1,148.68h1.66v9h2.72v1.51H164.1Z" style="fill:#263238"></path><path d="M169.28,148.68h4.51v1.51h-2.86V153h2.27v1.5h-2.27v3.23h2.86v1.51h-4.51Z" style="fill:#263238"></path><path d="M174.87,153.07v-4.39h1.66v4.39l-.21,3.36h-1.24Zm0,4.54h1.6v1.6h-1.6Z" style="fill:#263238"></path></g><g id="freepik--Character--inject-338"><path d="M320.38,289.33s0,37,4.44,54.47c3.7,14.58,16.9,57.77,16.9,57.77s7.21.08,7-1.79c-3.62-30.25-3.66-39.39-11-56.08,0,0,6-39.1,8.71-54.73Z" style="fill:#fff;stroke:#263238;stroke-linecap:round;stroke-linejoin:round;stroke-width:0.75px"></path><path d="M351.11,399.33a35.83,35.83,0,0,1-.52-4.23l-8.34,2.8s.08,3.13-.93,3.21-1.08-2.53-1.08-2.53l-2.92,1,2.17,3.46a4.61,4.61,0,0,1-1.68,3.4c-1.51,1.29-4.81,2.17-5.4,2.67s-2.73,1.11-3.21,1.91-.31,2.57-.2,3.42a16,16,0,0,0,.71,2.11l13.93-2.74,11.3-5.72A84.75,84.75,0,0,1,351.11,399.33Z" style="fill:#CC2952;stroke:#263238;stroke-linecap:round;stroke-linejoin:round;stroke-width:0.75px"></path><path d="M329.71,416.53l13.93-2.74,11.3-5.72s-.32-.64-.77-1.59l-11.09,5.44-14,3C329.32,415.57,329.71,416.53,329.71,416.53Z" style="fill:#263238;stroke:#263238;stroke-linecap:round;stroke-linejoin:round;stroke-width:0.75px"></path><path d="M345,401.56a10.87,10.87,0,0,0,4.82-1.62" style="fill:none;stroke:#263238;stroke-linecap:round;stroke-linejoin:round;stroke-width:0.75px"></path><path d="M341.83,406s-1.59-1.7-3.42-.86" style="fill:none;stroke:#263238;stroke-linecap:round;stroke-linejoin:round;stroke-width:0.75px"></path><path d="M339.92,407.58a3.24,3.24,0,0,0-3.17-1.32" style="fill:none;stroke:#263238;stroke-linecap:round;stroke-linejoin:round;stroke-width:0.75px"></path><path d="M334.64,407.62s1.93.17,2.22,1.72" style="fill:none;stroke:#263238;stroke-linecap:round;stroke-linejoin:round;stroke-width:0.75px"></path><path d="M339.77,403.38s-3.48-3.25-4.13-1.59,3.77,2.18,3.77,2.18-3.79.4-4.31,2.45" style="fill:none;stroke:#263238;stroke-linecap:round;stroke-linejoin:round;stroke-width:0.75px"></path><path d="M324.57,342.21a13.24,13.24,0,0,0,2.83,5.71" style="fill:none;stroke:#263238;stroke-linecap:round;stroke-linejoin:round;stroke-width:0.75px"></path><path d="M333.94,341.4a14.35,14.35,0,0,0-1.38,5.93" style="fill:none;stroke:#263238;stroke-linecap:round;stroke-linejoin:round;stroke-width:0.75px"></path><path d="M295,285.88s4.39,22.89,7.34,57c0,0,2.1,17.91,3.55,63.51l8.36-.37s5.14-38.06,2.68-60.63c0,0,2.46-24.72,2.46-59.11Z" style="fill:#fff;stroke:#263238;stroke-linecap:round;stroke-linejoin:round;stroke-width:0.75px"></path><path d="M302.17,341.43s1.88,5.82,4.92,5.19" style="fill:none;stroke:#263238;stroke-linecap:round;stroke-linejoin:round;stroke-width:0.75px"></path><path d="M309.11,406.06a11,11,0,0,0,5.09,0" style="fill:none;stroke:#263238;stroke-linecap:round;stroke-linejoin:round;stroke-width:0.75px"></path><path d="M315.09,405.88a38.66,38.66,0,0,1,.72-4.2L307,402s-.82,3-1.81,2.8-.31-2.73-.31-2.73l-3.07.09,1.08,3.95-8.53,3.76c-.86.38-2.94.28-3.63.91s-1,2.37-1.18,3.22a14.83,14.83,0,0,0,.07,2.22l26.6-.82A84.62,84.62,0,0,1,315.09,405.88Z" style="fill:#CC2952;stroke:#263238;stroke-linecap:round;stroke-linejoin:round;stroke-width:0.75px"></path><path d="M289.64,416.17l26.6-.82s-.12-.71-.28-1.75l-26.41.82C289.55,415.13,289.64,416.17,289.64,416.17Z" style="fill:#263238;stroke:#263238;stroke-linecap:round;stroke-linejoin:round;stroke-width:0.75px"></path><path d="M308.64,406.26a11,11,0,0,0,5.08-.16" style="fill:none;stroke:#263238;stroke-linecap:round;stroke-linejoin:round;stroke-width:0.75px"></path><path d="M303.91,408.46s-1.31-1.92-3.25-1.38" style="fill:none;stroke:#263238;stroke-linecap:round;stroke-linejoin:round;stroke-width:0.75px"></path><path d="M301.76,409.77a3.21,3.21,0,0,0-2.92-1.79" style="fill:none;stroke:#263238;stroke-linecap:round;stroke-linejoin:round;stroke-width:0.75px"></path><path d="M296.54,409s1.88.47,1.93,2.05" style="fill:none;stroke:#263238;stroke-linecap:round;stroke-linejoin:round;stroke-width:0.75px"></path><path d="M302.3,406.26s-1.7-4.45-3-3.24,2.44,3.61,2.44,3.61-3.59-1.3-5,.31" style="fill:none;stroke:#263238;stroke-linecap:round;stroke-linejoin:round;stroke-width:0.75px"></path><path d="M303.09,212.64c-8.64,7-14.95,17.2-14.95,17.2l-17.62-11.75s-.52-1.65-.68-2.2c-.34-1.13-.93-3.41-1.32-4.52-.33-.91-.79-2.91-1.51-3.56-.43-.39-1.73-1-2.24-.69s-.61,2.53-.61,2.53-2.23-1.39-3-1.18c-.6.16-1.3,1.37-1.54,1.94a16,16,0,0,0-.35,2.86c-.2,1.22-.47,3.74.05,4.86,1.1,2.32,8,4.9,8,4.9l18.76,18.87a2.6,2.6,0,0,0,3.68,0,117.31,117.31,0,0,0,18.51-25Z" style="fill:#fff;stroke:#263238;stroke-linecap:round;stroke-linejoin:round;stroke-width:0.75px"></path><path d="M304.62,211.3a36.57,36.57,0,0,0-11.07,9.92,27.49,27.49,0,0,1,8.22,7.62,97.89,97.89,0,0,0,7.5-13.35A3.3,3.3,0,0,0,304.62,211.3Z" style="fill:#263238;stroke:#263238;stroke-linecap:round;stroke-linejoin:round;stroke-width:0.75px"></path><path d="M303.32,212.39s-1.72,15,2.21,36a24.76,24.76,0,0,1-2.11,15.5c-4.06,8.25-9.78,25.76-3.69,58.48,0,0,21.73,5.3,40.63,1.3,0,0,10.37-28.86,4-57-1.35-5.91-3.89-10.46-2.77-16.43,0,0-.74-12.17,7.57-30.92,1.48-3.34-.76-7.72-4.28-8.72C329.11,206.11,326.79,205,303.32,212.39Z" style="fill:#263238;stroke:#263238;stroke-linecap:round;stroke-linejoin:round;stroke-width:0.75px"></path><path d="M312,203.2l-10.47,3a35,35,0,0,0,1.07-16c-1.5-8.79-.42-18.62,7.54-18.45s16.29-5.84,25.13,6.83,0,23.83,0,23.83l-8.5,2.52-7.67-13-7.1,1.37Z" style="fill:#263238;stroke:#263238;stroke-linecap:round;stroke-linejoin:round;stroke-width:0.75px"></path><path d="M316.85,206.53s1.39,2.07-.9,5.32c-1.54,2.17.81,5.32,4.25,5.32,7.84,0,10.07-10.12,10.07-10.12s-3.39-.22-3.87-15.15Z" style="fill:#fff"></path><g style="clip-path:url(#freepik--clip-path-23--inject-338)"><path d="M316.41,205s1,4,3.13,3.24,5.55-4.92,6.62-8.3a9.77,9.77,0,0,0-.75-6.79Z" style="fill:#263238;stroke:#263238;stroke-linecap:round;stroke-linejoin:round;stroke-width:0.75px"></path></g><path d="M316.85,206.53s1.39,2.07-.9,5.32c-1.54,2.17.81,5.32,4.25,5.32,7.84,0,10.07-10.12,10.07-10.12s-3.39-.22-3.87-15.15Z" style="fill:none;stroke:#263238;stroke-linecap:round;stroke-linejoin:round;stroke-width:0.75px"></path><path d="M307.81,180.17s-1.26,5-1.13,6.68c.07,1,1,3,.83,4-.32,2.68-2.49,5.16,1.62,10.65s8.39,5.91,8.39,5.91,8.1-4.27,8.56-11.21c0,0,4.53-2.4,3.24-5.64s-4.17-.66-4.17-.66L321,185.05l-3.38-1.25-2.15-3.68Z" style="fill:#fff;stroke:#263238;stroke-linecap:round;stroke-linejoin:round;stroke-width:0.75px"></path><polyline points="312.48 195.23 310.73 198.94 313.32 199.89" style="fill:none;stroke:#263238;stroke-linecap:round;stroke-linejoin:round;stroke-width:0.75px"></polyline><path d="M310.12,193.25c0,.57-.21,1-.51,1.05s-.55-.46-.57-1,.22-1,.52-1S310.11,192.68,310.12,193.25Z" style="fill:#263238"></path><path d="M316.8,193c0,.65-.25,1.18-.58,1.18s-.62-.51-.64-1.15.25-1.17.58-1.18S316.78,192.32,316.8,193Z" style="fill:#263238"></path><path d="M314.49,201.52a5,5,0,0,0,3.75-1.91" style="fill:none;stroke:#263238;stroke-linecap:round;stroke-linejoin:round;stroke-width:0.75px"></path><path d="M308.17,190.29s1.29-1.15,2.4.9" style="fill:none;stroke:#263238;stroke-linecap:round;stroke-linejoin:round;stroke-width:0.75px"></path><path d="M314.73,190.85s1.46-2.58,3.36-.34" style="fill:none;stroke:#263238;stroke-linecap:round;stroke-linejoin:round;stroke-width:0.75px"></path><path d="M310.73,175.27s-10.52,9.33.63,10.5c10.22,1.07,11.83,7,11.83,7l-.07-12.65Z" style="fill:#263238;stroke:#263238;stroke-linecap:round;stroke-linejoin:round;stroke-width:0.75px"></path><path d="M312,172.34s-2.87-6.17-8.95-2.09S307.38,168.49,312,172.34Z" style="fill:#263238;stroke:#263238;stroke-linecap:round;stroke-linejoin:round;stroke-width:0.75px"></path><path d="M334.18,197.1c-.15.81-.33,1.65-.56,2.51" style="fill:none;stroke:#7f7f7f;stroke-linecap:round;stroke-linejoin:round;stroke-width:0.75px"></path><path d="M323.59,173.1a21.84,21.84,0,0,1,10.92,21.62" style="fill:none;stroke:#7f7f7f;stroke-linecap:round;stroke-linejoin:round;stroke-width:0.75px"></path><path d="M306.24,180.12c3.3,2.6,12.55,3.11,13.55,5.6" style="fill:none;stroke:#7f7f7f;stroke-linecap:round;stroke-linejoin:round;stroke-width:0.75px"></path><path d="M308.57,174.22s-2.54,1.49-3.21,3.25" style="fill:none;stroke:#7f7f7f;stroke-linecap:round;stroke-linejoin:round;stroke-width:0.75px"></path><path d="M316.87,178.26a11.46,11.46,0,0,0,2.92,1.71c6.12,2.63,11.36,4.88,12.37,14.75" style="fill:none;stroke:#7f7f7f;stroke-linecap:round;stroke-linejoin:round;stroke-width:0.75px"></path><path d="M315,173.72a3.44,3.44,0,0,0,.08,2.12" style="fill:none;stroke:#7f7f7f;stroke-linecap:round;stroke-linejoin:round;stroke-width:0.75px"></path><path d="M278.43,201.52h10.42a2.4,2.4,0,0,1,2.4,2.4v5a0,0,0,0,1,0,0H276a0,0,0,0,1,0,0v-5A2.4,2.4,0,0,1,278.43,201.52Z" style="fill:#CC2952;stroke:#263238;stroke-linecap:round;stroke-linejoin:round;stroke-width:0.75px"></path><path d="M300.07,229.29v46.27h8.5l-2-70.61H266.14a4.5,4.5,0,0,0-4.5,4.35l-1.85,66.26h8.5V230.34L272,260.7l-7.59,44.11s16.59,7.88,39.48,0l-7.68-44.45Z" style="fill:#CC2952"></path><g style="clip-path:url(#freepik--clip-path-24--inject-338)"><g style="opacity:0.6000000000000001"><path d="M300.07,229.29v46.27h8.5l-2-70.61H266.14a4.5,4.5,0,0,0-4.5,4.35l-1.85,66.26h8.5V230.34L272,260.7l-7.59,44.11s16.59,7.88,39.48,0l-7.68-44.45Z" style="fill:#fff"></path></g></g><path d="M300.07,229.29v46.27h8.5l-2-70.61H266.14a4.5,4.5,0,0,0-4.5,4.35l-1.85,66.26h8.5V230.34L272,260.7l-7.59,44.11s16.59,7.88,39.48,0l-7.68-44.45Z" style="fill:none;stroke:#263238;stroke-linecap:round;stroke-linejoin:round;stroke-width:0.75px"></path><path d="M276.94,218.93l1.35,1.17" style="fill:none;stroke:#263238;stroke-linecap:round;stroke-linejoin:round;stroke-width:0.75px"></path><path d="M266.2,223.38c-1.34-4-3.49-11-2.31-12.52s8.21,4,12,7.17" style="fill:none;stroke:#263238;stroke-linecap:round;stroke-linejoin:round;stroke-width:0.75px"></path><path d="M267.16,226.1s-.16-.41-.4-1.11" style="fill:none;stroke:#263238;stroke-linecap:round;stroke-linejoin:round;stroke-width:0.75px"></path><path d="M296.68,209.57a4.5,4.5,0,0,1,2.1-1" style="fill:none;stroke:#263238;stroke-linecap:round;stroke-linejoin:round;stroke-width:0.75px"></path><path d="M290,221.1a41.23,41.23,0,0,1,4.32-8.87" style="fill:none;stroke:#263238;stroke-linecap:round;stroke-linejoin:round;stroke-width:0.75px"></path><line x1="300.6" y1="222.71" x2="300.21" y2="224.85" style="fill:none;stroke:#263238;stroke-linecap:round;stroke-linejoin:round;stroke-width:0.75px"></line><line x1="301.55" y1="217.35" x2="300.88" y2="221.1" style="fill:none;stroke:#263238;stroke-linecap:round;stroke-linejoin:round;stroke-width:0.75px"></line><path d="M276.24,252.37a8.2,8.2,0,0,1-1.95-2" style="fill:none;stroke:#263238;stroke-linecap:round;stroke-linejoin:round;stroke-width:0.75px"></path><path d="M275.12,259.93s17.5,3,17.67,0c.12-2.19-7.66-3.11-13.43-5.75" style="fill:none;stroke:#263238;stroke-linecap:round;stroke-linejoin:round;stroke-width:0.75px"></path><polygon points="274.11 209.99 271.07 209.99 269.93 211.67 269.93 218.08 275.26 218.08 275.26 211.67 274.11 209.99" style="fill:#fff;stroke:#263238;stroke-linecap:round;stroke-linejoin:round;stroke-width:0.75px"></polygon><path d="M272.59,211.27s-1.33-6.84,4.35-7.25" style="fill:none;stroke:#263238;stroke-linecap:round;stroke-linejoin:round;stroke-width:0.75px"></path><path d="M273.23,211.27a.64.64,0,1,1-.64-.64A.63.63,0,0,1,273.23,211.27Z" style="fill:#263238"></path><path d="M261.17,209.49s4.12.32,4.49.93,1.81,2.68,1.11,3.23-2.11-1.71-2.77-1.73-3.13.05-3.13.05" style="fill:#fff;stroke:#263238;stroke-linecap:round;stroke-linejoin:round;stroke-width:0.75px"></path><path d="M260.87,212s3.13-.06,4,.86c.45.5.58,2.47,0,3s-.86-1.52-1.45-1.53-2.78.08-2.78.08" style="fill:#fff;stroke:#263238;stroke-linecap:round;stroke-linejoin:round;stroke-width:0.75px"></path><path d="M342.3,213.82c-1.49-1.92-17.24,15-17.24,15l-15.76-14s-.3-1.71-.39-2.28c-.18-1.16-.46-3.5-.7-4.65-.2-.95-.39-3-1-3.73-.38-.44-1.59-1.2-2.14-1s-.94,2.43-.94,2.43-1.76-1.24-2.57-1.13c-.61.08-1.94-.27-2.77.41-.56.45.2,3,0,3.65a13.5,13.5,0,0,0,.39,5.43c.77,2.45,6.33,5.32,6.33,5.32l16.08,21.2a2.6,2.6,0,0,0,3.65.47c11.87-8.93,20.4-16,21.67-22.29Z" style="fill:#fff;stroke:#263238;stroke-linecap:round;stroke-linejoin:round;stroke-width:0.75px"></path><path d="M344,212.7a36.48,36.48,0,0,0-12.29,8.35,27.6,27.6,0,0,1,7.13,8.65,98.59,98.59,0,0,0,9.21-12.24A3.29,3.29,0,0,0,344,212.7Z" style="fill:#263238;stroke:#263238;stroke-linecap:round;stroke-linejoin:round;stroke-width:0.75px"></path><path d="M335.26,217.35c3.31-2.95,8.34-6.19,12.57-3.62" style="fill:none;stroke:#7f7f7f;stroke-linecap:round;stroke-linejoin:round;stroke-width:0.75px"></path><path d="M331.71,221.05s.57-.72,1.54-1.74" style="fill:none;stroke:#7f7f7f;stroke-linecap:round;stroke-linejoin:round;stroke-width:0.75px"></path><path d="M346.53,223.78c.32-.45.61-.92.88-1.39" style="fill:none;stroke:#7f7f7f;stroke-linecap:round;stroke-linejoin:round;stroke-width:0.75px"></path><path d="M339.21,231.1a38.2,38.2,0,0,0,6.42-6.12" style="fill:none;stroke:#7f7f7f;stroke-linecap:round;stroke-linejoin:round;stroke-width:0.75px"></path><path d="M312.24,245.24a78.84,78.84,0,0,0,14.88,22" style="fill:none;stroke:#7f7f7f;stroke-linecap:round;stroke-linejoin:round;stroke-width:0.75px"></path><path d="M310.12,240.08c.31.83.63,1.66,1,2.48" style="fill:none;stroke:#7f7f7f;stroke-linecap:round;stroke-linejoin:round;stroke-width:0.75px"></path><path d="M308.63,235.62c.24.81.5,1.61.77,2.41" style="fill:none;stroke:#7f7f7f;stroke-linecap:round;stroke-linejoin:round;stroke-width:0.75px"></path><path d="M320.06,306.13c0-.38,0-.77,0-1.15q-.33-8.82-1.36-17.6" style="fill:none;stroke:#7f7f7f;stroke-linecap:round;stroke-linejoin:round;stroke-width:0.75px"></path><path d="M320.06,306.13c0-.37,0-.75,0-1.15v-.06a65.17,65.17,0,0,1,1.39-13.71" style="fill:none;stroke:#7f7f7f;stroke-linecap:round;stroke-linejoin:round;stroke-width:0.75px"></path><path d="M320.55,251.25a35.16,35.16,0,0,0,15.09,10.15" style="fill:none;stroke:#7f7f7f;stroke-linecap:round;stroke-linejoin:round;stroke-width:0.75px"></path><path d="M321.41,291.21a27.89,27.89,0,0,1-2.75-3.83,28.75,28.75,0,0,1-2.44-5.1" style="fill:none;stroke:#7f7f7f;stroke-linecap:round;stroke-linejoin:round;stroke-width:0.75px"></path></g></svg>
